<svg width="95" height="48" viewBox="0 0 95 48" fill="none" xmlns="http://www.w3.org/2000/svg">
<g clip-path="url(#clip0_1_1952)">
<path d="M81.9182 43.1735C81.7793 43.7029 81.6364 44.2046 81.5197 44.7125C81.4031 45.2212 81.3266 45.7385 81.2959 46.2603C81.2652 46.7765 81.2474 47.2935 81.2223 47.8464C81.1648 47.7935 81.124 47.7641 81.0933 47.7264C80.3722 46.8403 79.6896 45.9271 79.1354 44.924C78.6492 44.0432 78.2809 43.1192 78.1056 42.1224C77.961 41.2994 77.9677 40.479 78.0972 39.6554C78.3305 38.1653 78.7949 36.7415 79.3246 35.3365C79.516 34.8282 79.7214 34.325 79.9162 33.8179C80.0876 33.3712 80.2399 32.9205 80.2969 32.4396C80.3582 31.9157 80.2662 31.4223 80.0574 30.9456C80.0005 30.8164 79.9318 30.6925 79.8676 30.5666C79.1013 29.0635 78.4723 27.5016 77.9024 25.9157C77.5553 24.9485 77.3722 23.9442 77.3482 22.9138C77.3119 21.3669 77.6714 19.9156 78.4209 18.5657C78.8429 17.8058 79.2699 17.0473 79.732 16.3114C80.6848 14.7926 81.6587 13.287 82.6315 11.7807C83.3398 10.6838 83.999 9.56028 84.5398 8.36994C85.0868 7.16782 85.5015 5.92289 85.7253 4.61942C85.8782 3.72811 85.9553 2.82947 85.9089 1.9234C85.905 1.84759 85.8989 1.76961 85.9117 1.69566C85.9642 1.38764 86.0234 1.08078 86.0831 0.759277C86.202 0.818022 86.2271 0.919089 86.2734 1.0001C86.9432 2.16951 87.6124 3.33927 88.2782 4.5108C89.9052 7.37355 91.5339 10.2355 93.2161 13.0661C93.8022 14.0522 94.2576 15.095 94.5389 16.2102C95.0111 18.0845 94.9251 19.9383 94.3251 21.7712C94.0466 22.6216 93.6704 23.4278 93.22 24.1997C92.2617 25.8431 91.2565 27.4575 90.2206 29.0526C88.5517 31.623 86.8734 34.1875 85.2023 36.7566C84.5862 37.7041 83.9945 38.6671 83.4542 39.6609C82.8459 40.7802 82.3184 41.9347 81.9182 43.1735ZM90.3305 15.9162C90.4974 14.8983 90.4751 13.8778 90.354 12.8589C90.2429 11.929 90.0353 11.0176 89.7813 10.1169C89.7595 10.0405 89.7255 9.9675 89.6926 9.88032C89.6708 9.91861 89.6574 9.93619 89.6502 9.956C89.6351 9.99669 89.62 10.0379 89.61 10.0801C89.1947 11.8485 88.5088 13.512 87.6721 15.1176C87.0587 16.2949 86.3694 17.4273 85.6533 18.5439C85.5897 18.6433 85.5277 18.7438 85.473 18.8311C85.6304 19.1943 87.22 21.9318 87.3869 22.1257C87.4204 22.0816 87.4556 22.0434 87.4818 21.9996C88.0907 20.9835 88.713 19.9749 89.303 18.9479C89.8332 18.0256 90.1648 17.0271 90.3305 15.9162ZM85.8342 23.7757C85.6505 23.4557 85.4669 23.1355 85.2827 22.8157C85.0929 22.4864 84.9054 22.1558 84.7112 21.8291C84.5264 21.5173 84.369 21.188 84.1413 20.8751C84.0805 20.9576 84.0325 21.0153 83.9917 21.078C83.4816 21.8726 82.9659 22.6639 82.4658 23.4651C82.2531 23.8052 82.0628 24.1603 81.8836 24.5192C81.4131 25.4602 81.1089 26.4542 81.0129 27.5037C80.903 28.7008 81.076 29.8655 81.4667 30.9992C81.4796 31.0362 81.5114 31.0665 81.5476 31.1194C81.8931 30.6624 82.2531 30.2418 82.5512 29.7749C83.6792 28.0091 84.8049 26.2419 85.9313 24.4748C85.9832 24.3935 86.0295 24.3087 86.0825 24.2186C86.0061 24.0805 85.9329 23.9485 85.8342 23.7757Z" fill="white"/>
<path d="M34.4829 33.2765C32.1709 33.2765 29.8914 33.2741 27.612 33.278C26.9428 33.2791 26.2932 33.1796 25.669 32.9373C25.5284 32.8827 25.4067 32.8785 25.2644 32.9331C24.6296 33.177 23.9704 33.2836 23.2896 33.2785C22.2911 33.2709 21.2924 33.2762 20.2938 33.2768C20.1764 33.2768 20.0592 33.2813 19.9229 33.2842C19.9113 33.4002 19.899 33.4947 19.8928 33.5896C19.8704 33.9276 19.8067 34.2574 19.7007 34.579C19.6253 34.8077 19.5222 35.0226 19.3789 35.2165C19.1171 35.5707 18.765 35.7628 18.3263 35.7793C18.0469 35.7898 17.7658 35.7955 17.4921 35.7497C17.4394 35.4986 17.434 34.5346 17.483 34.2006C17.5509 34.1914 17.6236 34.1819 17.6962 34.1714C17.8871 34.1437 18.0118 34.0327 18.073 33.8541C18.1043 33.7626 18.128 33.6659 18.1369 33.5698C18.1499 33.4293 18.1496 33.2873 18.1496 33.146C18.1504 31.6121 18.1499 30.0783 18.1506 28.5444C18.1506 28.4273 18.1571 28.3101 18.1611 28.1786C18.3614 28.1363 18.545 28.1597 18.7262 28.1557C18.9215 28.1516 19.117 28.1529 19.3123 28.1554C19.4949 28.1577 19.6785 28.1437 19.8824 28.1696C19.8899 28.2755 19.9024 28.3693 19.9025 28.4632C19.904 29.4096 19.9031 30.356 19.9038 31.3025C19.904 31.4093 19.9103 31.5162 19.9143 31.6434C20.3476 31.6865 20.768 31.6581 21.1869 31.6634C21.5994 31.6686 22.0119 31.6645 22.4243 31.6645C22.8454 31.6645 23.2664 31.6645 23.68 31.6645C23.7177 31.5757 23.6597 31.5472 23.6238 31.5143C23.5277 31.4263 23.4256 31.345 23.3289 31.2575C23.208 31.1484 23.0914 31.0345 22.9707 30.925C22.644 30.6284 22.4984 30.2595 22.5112 29.8192C22.52 29.5159 22.5129 29.2121 22.5129 28.9103C24.2694 27.7609 26.585 27.7614 28.432 28.9068C28.432 29.0317 28.4346 29.1611 28.4315 29.2903C28.4266 29.4969 28.4118 29.7035 28.4123 29.91C28.413 30.2907 28.2693 30.6101 28.007 30.8758C27.8393 31.0456 27.6576 31.2016 27.4814 31.3631C27.3946 31.4426 27.3062 31.5204 27.2247 31.5935C27.2368 31.6242 27.2388 31.636 27.2454 31.6439C27.2512 31.6509 27.2623 31.6573 27.2711 31.6573C28.2912 31.6598 29.3114 31.662 30.3315 31.6627C30.3733 31.6627 30.415 31.6486 30.4651 31.6395C30.4573 31.557 30.4571 31.4805 30.442 31.4071C30.337 30.8988 30.3433 30.3892 30.4484 29.8841C30.5346 29.4698 30.6525 29.0622 30.7446 28.6489C30.7779 28.4993 30.8642 28.4334 30.9981 28.3863C31.3379 28.2668 31.6877 28.1911 32.0428 28.1478C32.6368 28.0753 33.2327 28.0557 33.8289 28.1364C34.197 28.1863 34.5541 28.2666 34.8758 28.4648C35.2662 28.7053 35.5141 29.0409 35.5979 29.4995C35.6687 29.8863 35.6977 30.2755 35.7053 30.6673C35.7085 30.8304 35.7096 30.9937 35.7056 31.1567C35.7022 31.2953 35.7519 31.411 35.837 31.5155C35.9168 31.6134 36.0136 31.6675 36.1455 31.6657C36.4602 31.6613 36.7751 31.6644 37.0898 31.6645C37.3817 31.6645 37.6736 31.6645 37.967 31.6645C38.0452 31.5416 38.0132 31.419 38.0134 31.3048C38.0161 29.8145 38.0152 28.3241 38.0152 26.8338C38.0152 26.7032 38.0137 26.5727 38.0162 26.4422C38.0171 26.3903 38.0268 26.3386 38.0318 26.2927C38.3021 26.243 39.4225 26.2397 39.7274 26.284C39.7352 26.2913 39.7448 26.2975 39.7499 26.3063C39.7552 26.3154 39.7584 26.3271 39.7584 26.3376C39.7618 28.5891 39.765 30.8407 39.7671 33.0922C39.7672 33.135 39.7576 33.1779 39.7504 33.2205C39.7489 33.2295 39.7386 33.2371 39.7177 33.2645C39.6714 33.2688 39.6087 33.2797 39.5461 33.2797C38.4389 33.2808 37.3317 33.2781 36.2245 33.2829C36.0423 33.2838 35.8838 33.2418 35.7496 33.1181C35.7144 33.1725 35.6857 33.2168 35.6471 33.2765C35.2735 33.2765 34.8945 33.2765 34.4829 33.2765ZM32.0799 31.143C32.1252 31.3091 32.1167 31.4895 32.2219 31.6652C32.4069 31.6652 32.601 31.6652 32.7951 31.6652C32.9797 31.6652 33.1643 31.6682 33.3488 31.6643C33.5403 31.6602 33.7342 31.6837 33.9318 31.6458C33.9395 31.5839 33.949 31.5424 33.9491 31.5007C33.9502 31.1853 33.9531 30.8698 33.9474 30.5543C33.9452 30.4355 33.9209 30.3172 33.9086 30.1984C33.8928 30.0459 33.8077 29.9375 33.6898 29.851C33.5737 29.766 33.4418 29.7246 33.3004 29.6975C32.9744 29.6354 32.6513 29.6668 32.3282 29.711C32.2679 29.7193 32.2108 29.7511 32.1625 29.7684C32.0561 30.2532 32.0371 30.5452 32.0799 31.143ZM24.3231 30.0447C24.6002 30.5041 24.9995 30.8211 25.4651 31.0508C26.0989 30.7203 26.5541 30.2823 26.7126 29.8573C26.2891 29.5759 24.6258 29.5702 24.2488 29.858C24.2651 29.9027 24.2829 29.9517 24.3231 30.0447Z" fill="white"/>
<path d="M57.7384 33.2807C55.6434 33.2807 53.5807 33.2813 51.518 33.2804C50.8455 33.28 50.1725 33.2985 49.5018 33.221C49.352 33.2037 49.1974 33.2053 49.047 33.2197C48.6491 33.2578 48.3942 33.5079 48.3311 33.9015C48.2524 34.3926 48.545 34.8307 49.0065 34.8822C49.0816 34.8906 49.1554 34.9101 49.2265 34.9239C49.3215 35.2015 49.466 36.1621 49.4536 36.4461C49.3966 36.4585 49.336 36.4806 49.2745 36.4833C48.9599 36.4972 48.6468 36.5027 48.3343 36.4378C47.7 36.3061 47.2276 35.9592 46.9103 35.3961C46.646 34.9268 46.569 34.4143 46.574 33.8858C46.5764 33.6248 46.5964 33.3641 46.6691 33.1107C46.8914 32.3348 47.3949 31.8709 48.1905 31.7272C48.568 31.659 48.946 31.6623 49.3259 31.7002C49.5729 31.7249 49.8207 31.7415 50.0801 31.7627C50.0925 31.6801 50.1096 31.6181 50.1099 31.5559C50.1123 31.1317 50.1155 30.7072 50.1083 30.2831C50.1061 30.1542 50.0817 30.0235 50.0506 29.8979C50.0042 29.7105 49.8747 29.5991 49.6846 29.5743C49.5562 29.5575 49.4252 29.5559 49.2953 29.5558C48.6873 29.5555 48.0794 29.5584 47.4714 29.5588C47.408 29.5588 47.3446 29.5495 47.2861 29.545C47.2182 29.2684 47.1863 28.7487 47.2178 28.4142C47.3759 28.3739 47.54 28.3211 47.7081 28.2912C48.5107 28.1481 49.318 28.0526 50.1357 28.0736C50.3976 28.0803 50.6538 28.1185 50.9047 28.1946C51.4226 28.3516 51.7342 28.6924 51.8143 29.2317C51.8429 29.4246 51.8632 29.6204 51.8658 29.8153C51.873 30.3265 51.8677 30.838 51.869 31.3493C51.8692 31.4445 51.8767 31.5397 51.8818 31.6548C51.975 31.6585 52.0482 31.6634 52.1216 31.6642C54.8564 31.6944 58.574 31.6792 58.91 31.634C58.9155 31.5548 58.9211 31.4713 58.9261 31.3876C58.9847 30.407 59.6724 29.5316 60.6033 29.2839C62.2465 28.8467 63.3767 30.1091 63.4828 31.2519C63.4951 31.3806 63.5073 31.5093 63.5207 31.6497C63.7027 31.6497 63.8718 31.6497 64.0331 31.6497C64.0515 31.617 64.07 31.5989 64.07 31.581C64.0683 31.0917 64.0845 30.6014 64.0571 30.1135C64.0192 29.4376 63.6982 28.9143 63.1172 28.5627C62.8247 28.3857 62.4971 28.305 62.1606 28.2666C61.781 28.2234 61.4009 28.244 61.0242 28.2978C60.5302 28.3682 60.038 28.4498 59.5451 28.5259C59.4809 28.5357 59.4167 28.5413 59.3325 28.5513C59.3168 28.4874 59.2967 28.4285 59.2895 28.3679C59.2504 28.044 59.213 27.7199 59.1795 27.3955C59.1712 27.3112 59.1784 27.2253 59.1784 27.1317C59.4843 27.0245 59.7929 26.968 60.0988 26.9089C60.5777 26.8165 61.0588 26.7291 61.5427 26.6708C62.1377 26.5991 62.7338 26.6106 63.3215 26.7567C64.3529 27.0131 65.0701 27.6408 65.4843 28.6138C65.6902 29.0972 65.8058 29.6069 65.8214 30.134C65.8331 30.5253 65.8281 30.9172 65.832 31.3088C65.8331 31.4154 65.8393 31.5218 65.8432 31.623C66.0954 31.6739 67.6515 31.6871 68.1321 31.6458C68.208 31.5663 68.1773 31.4639 68.1773 31.371C68.1801 30.4245 68.179 29.4779 68.1795 28.5313C68.1795 28.425 68.1862 28.3185 68.1896 28.2179C68.4301 28.1593 69.5274 28.1489 69.9081 28.1996C69.9159 28.2554 69.931 28.3166 69.931 28.3778C69.9327 29.9337 69.9327 31.4895 69.9315 33.0454C69.9315 33.1095 69.922 33.1736 69.9154 33.2514C69.8478 33.2617 69.7864 33.2762 69.7239 33.2792C69.6262 33.2838 69.5286 33.2807 69.4309 33.2807C65.5446 33.2807 61.6577 33.2807 57.7384 33.2807ZM61.6376 31.6642C61.6711 31.6426 61.7308 31.6244 61.7341 31.5988C61.7654 31.3631 61.7135 31.1458 61.5539 30.9645C61.3496 30.7328 61.0393 30.7421 60.8562 30.9896C60.7166 31.1789 60.667 31.3946 60.6993 31.6206C60.7334 31.6387 60.7518 31.6567 60.7708 31.657C61.0409 31.6612 61.3111 31.6631 61.6376 31.6642Z" fill="white"/>
<path d="M6.70469 31.2674C6.70469 31.4072 6.70469 31.5147 6.70469 31.634C6.7869 31.6461 6.84897 31.6631 6.91103 31.6631C8.35416 31.6647 9.79728 31.6646 11.2404 31.6634C11.3037 31.6634 11.367 31.6505 11.4372 31.6429C11.4529 31.447 11.4113 31.267 11.3914 31.0852C11.3428 30.6404 11.3337 30.1963 11.4209 29.7539C11.5467 29.1154 11.9078 28.6781 12.5164 28.4447C12.8752 28.307 13.2511 28.2433 13.6287 28.2221C14.5723 28.169 15.5158 28.1738 16.4523 28.3308C16.4731 28.3343 16.4927 28.3453 16.5293 28.359C16.5369 28.4129 16.5532 28.4748 16.5532 28.5368C16.5546 30.0483 16.5545 31.5599 16.5537 33.0714C16.5537 33.1245 16.5456 33.1777 16.5399 33.2476C16.4738 33.2591 16.4132 33.2753 16.3518 33.2791C16.2654 33.2844 16.1783 33.2806 16.0915 33.2806C13.4657 33.2806 10.8398 33.2811 8.21395 33.2804C6.77088 33.2801 5.32778 33.2788 3.8847 33.2758C3.45029 33.2749 3.01888 33.2378 2.58923 33.1687C1.78652 33.0395 1.31289 32.5648 1.13769 31.7844C1.01798 31.2512 0.984947 30.7084 1.03491 30.1634C1.05569 29.9367 1.08468 29.7093 1.13087 29.4866C1.27651 28.7842 1.71026 28.3548 2.4077 28.2166C2.76802 28.1452 3.13707 28.1009 3.50402 28.0836C4.41549 28.0408 5.32624 28.089 6.23558 28.1553C6.38454 28.1661 6.53674 28.1752 6.67382 28.228C6.68459 28.2588 6.69788 28.2791 6.69793 28.2995C6.70089 29.2781 6.70273 30.2567 6.70469 31.2674ZM4.94075 29.7722C4.91362 29.7151 4.86269 29.7026 4.80677 29.7025C4.37456 29.7018 3.94233 29.6994 3.51016 29.7032C3.42507 29.704 3.33889 29.7241 3.25547 29.7445C3.02381 29.8012 2.88227 29.9517 2.82282 30.181C2.73623 30.5151 2.74999 30.8494 2.85141 31.1753C2.92325 31.4061 3.07968 31.5677 3.33003 31.6096C3.46812 31.6327 3.60763 31.6577 3.74697 31.6609C4.0928 31.6686 4.43892 31.6654 4.78491 31.6636C4.8344 31.6634 4.8838 31.6464 4.94973 31.634C4.94973 31.0207 4.94973 30.4261 4.94075 29.7722ZM13.1653 30.5997C13.1419 31.2844 13.1544 31.4178 13.2635 31.6462C13.7193 31.6883 14.5505 31.6753 14.7951 31.617C14.7963 31.4197 14.798 31.216 14.7987 31.0121C14.7993 30.8063 14.8039 30.6003 14.7974 30.3948C14.7909 30.1933 14.8299 29.9877 14.7623 29.7847C14.4282 29.7518 14.105 29.7552 13.7821 29.7786C13.7076 29.784 13.6341 29.8081 13.5613 29.8276C13.4031 29.8702 13.2915 29.9715 13.2465 30.1266C13.2077 30.2603 13.1935 30.4012 13.1653 30.5997Z" fill="white"/>
<path d="M90.1817 42.236C90.6611 42.4213 90.9167 42.7939 91.0239 43.2773C91.078 43.5204 91.1098 43.7693 91.1377 44.0172C91.2287 44.8158 91.3124 45.6152 91.399 46.4144C91.4001 46.424 91.3923 46.4346 91.3884 46.4471C91.337 46.5084 91.2767 46.5052 91.2243 46.4522C91.164 46.3906 91.1143 46.3183 91.0568 46.2534C90.7292 45.8834 90.3206 45.6847 89.8256 45.6898C89.6207 45.6918 89.4153 45.7159 89.2122 45.7446C88.9867 45.7765 88.7651 45.8341 88.5402 45.8636C88.3688 45.8861 88.1936 45.8958 88.0211 45.8872C87.6064 45.8666 87.2654 45.6917 87.0382 45.3381C86.916 45.1477 86.811 44.9423 86.7262 44.7326C86.5331 44.2576 86.4259 43.7567 86.3456 43.2528C86.2289 42.5237 86.1335 41.7912 86.0285 41.0603C86.0163 40.9746 86.0364 40.9106 86.153 40.885C86.1988 40.9232 86.2568 40.9683 86.3104 41.0181C86.6698 41.35 87.0985 41.5036 87.5818 41.5231C87.953 41.5381 88.3164 41.4766 88.6814 41.4251C88.8739 41.3979 89.0693 41.3787 89.2635 41.3753C89.6905 41.3677 90.041 41.5438 90.3251 41.8568C90.4172 41.9581 90.5115 42.06 90.569 42.2159C90.4473 42.2063 90.3692 42.1472 90.2431 42.0938C90.0416 42.0065 89.8719 41.979 89.6972 41.9738C89.1753 41.9583 88.678 42.0915 88.1779 42.2125C88.342 42.2243 88.5067 42.2442 88.6652 42.2206C89.1725 42.145 89.6771 42.1278 90.1817 42.236Z" fill="white"/>
<path d="M32.5382 39.7536C32.8223 39.8248 33.0814 39.8173 33.3423 39.8009C33.5788 39.7859 33.8159 39.782 34.0729 39.7725C34.1296 40.0471 34.1012 40.3024 34.0939 40.5646C33.9353 40.6464 33.7684 40.5466 33.5968 40.6007C33.6067 40.6448 33.6105 40.6842 33.6243 40.7198C33.7524 41.0514 33.7205 41.3843 33.6162 41.7107C33.5369 41.9593 33.3668 42.1395 33.1292 42.2534C32.8903 42.3679 32.6373 42.4234 32.3749 42.4329C32.1804 42.4399 31.9854 42.4342 31.78 42.4342C31.7578 42.4738 31.7291 42.5074 31.7186 42.546C31.6455 42.8143 31.7032 42.9041 31.9815 42.9393C32.1103 42.9556 32.2416 42.9496 32.3714 42.9588C32.6526 42.9785 32.9335 43.0011 33.2145 43.0236C33.2576 43.0271 33.3007 43.0343 33.3429 43.0438C33.843 43.1564 34.0813 43.4445 34.1017 43.9598C34.1317 44.7194 33.8237 45.1429 33.0804 45.3264C32.4703 45.4771 31.8555 45.4739 31.2442 45.319C31.1814 45.3031 31.119 45.2837 31.0585 45.2604C30.3962 45.0049 30.2104 44.3061 30.6579 43.748C30.739 43.6468 30.8323 43.5554 30.9345 43.4435C30.8932 43.3851 30.8491 43.328 30.8105 43.2673C30.67 43.047 30.6572 42.8193 30.7803 42.5874C30.8406 42.4736 30.9058 42.3625 30.9722 42.2439C30.9366 42.2035 30.9117 42.1689 30.8807 42.1412C30.4139 41.7243 30.3826 40.969 30.5853 40.4752C30.7224 40.1415 30.9883 39.9419 31.3207 39.8291C31.6328 39.7232 31.9557 39.6908 32.284 39.7183C32.3596 39.7247 32.4344 39.7394 32.5382 39.7536ZM32.3628 41.6061C32.5178 41.5515 32.6204 41.444 32.6528 41.2842C32.6874 41.1131 32.696 40.9388 32.612 40.7762C32.501 40.5608 32.3017 40.5278 32.0877 40.5277C31.8712 40.5276 31.6744 40.5744 31.5694 40.788C31.5118 40.9052 31.4892 41.0342 31.507 41.1676C31.5456 41.4566 31.7032 41.6188 31.9921 41.6442C32.098 41.6535 32.2065 41.6327 32.3628 41.6061ZM31.9134 43.8205C31.8185 43.8205 31.7236 43.8205 31.6119 43.8205C31.5562 43.9359 31.4965 44.0378 31.4571 44.1471C31.4156 44.2621 31.465 44.3643 31.5574 44.4332C31.616 44.4769 31.6904 44.5067 31.7622 44.5243C32.0828 44.603 32.4059 44.5995 32.7255 44.5211C32.8064 44.5012 32.8865 44.4568 32.9533 44.4058C33.0588 44.3252 33.0731 44.2064 33.0487 44.0818C33.0263 43.9673 32.9363 43.9255 32.84 43.9038C32.746 43.8826 32.6482 43.8763 32.5517 43.8683C32.358 43.8521 32.164 43.8393 31.9134 43.8205Z" fill="white"/>
<path d="M15.7879 43.6471C15.5177 43.6471 15.2794 43.6471 15.0288 43.6471C15.001 43.5675 14.9674 43.4999 14.9538 43.4285C14.7374 42.2973 14.523 41.1657 14.3103 40.0338C14.2967 39.9617 14.3001 39.8863 14.2952 39.805C14.3512 39.7949 14.3929 39.7812 14.4347 39.7809C14.705 39.7789 14.9753 39.7799 15.2544 39.7799C15.2803 39.8537 15.3108 39.9116 15.3205 39.9727C15.4569 40.8314 15.5903 41.6905 15.7254 42.5494C15.7338 42.6023 15.7449 42.6568 15.7671 42.7049C15.7775 42.7274 15.8167 42.7472 15.8437 42.7486C15.8712 42.7499 15.9133 42.7345 15.9252 42.7131C15.9508 42.6669 15.9664 42.6132 15.977 42.5607C16.1321 41.7939 16.2855 41.0268 16.4399 40.2598C16.4654 40.1331 16.4937 40.0069 16.519 39.8887C16.8015 39.8435 17.311 39.8435 17.5914 39.8886C17.6604 40.2203 17.7325 40.5591 17.8012 40.8986C17.9133 41.4524 18.0228 42.0067 18.1349 42.5605C18.1455 42.6129 18.1604 42.6666 18.1858 42.7129C18.1975 42.7342 18.2398 42.7498 18.2672 42.7484C18.2942 42.7471 18.3349 42.7268 18.3435 42.7045C18.3668 42.6449 18.3806 42.5805 18.3906 42.5168C18.5259 41.658 18.6595 40.7989 18.7949 39.9401C18.8015 39.8987 18.8197 39.8592 18.8307 39.8244C19.0663 39.7668 19.5101 39.7618 19.811 39.8127C19.8134 39.8521 19.8249 39.8958 19.8172 39.9357C19.5805 41.161 19.3599 42.3896 19.1165 43.6043C18.8563 43.6571 17.8203 43.6637 17.4886 43.6155C17.3549 42.9109 17.2196 42.198 17.0755 41.4382C16.997 41.5822 16.9822 41.6936 16.9622 41.8033C16.8683 42.3163 16.7754 42.8295 16.6797 43.3422C16.662 43.4369 16.6332 43.5295 16.6047 43.6422C16.3382 43.6439 16.079 43.6455 15.7879 43.6471Z" fill="white"/>
<path d="M4.8738 41.8773C5.13512 42.4632 5.38502 43.0271 5.63746 43.5968C5.59404 43.6229 5.5687 43.6513 5.54313 43.6516C5.18617 43.6545 4.82918 43.6535 4.45742 43.6535C4.41548 43.5748 4.36966 43.5028 4.33703 43.4252C4.13082 42.935 3.92808 42.4434 3.72288 41.9527C3.67308 41.8337 3.6183 41.7167 3.56909 41.6061C3.28423 41.5669 3.13107 41.5797 2.8748 41.6654C2.86858 41.7424 2.85618 41.827 2.85584 41.9115C2.85391 42.3897 2.85625 42.8678 2.85368 43.346C2.85317 43.441 2.87878 43.5425 2.79321 43.6522C2.47956 43.6541 2.1486 43.6745 1.80862 43.6366C1.79885 43.5811 1.78536 43.5402 1.78534 43.4993C1.78428 41.8156 1.78443 40.1319 1.78443 38.4441C1.96193 38.3607 2.13674 38.4028 2.30539 38.3989C2.47596 38.3949 2.64866 38.3814 2.82628 38.4155C2.88165 38.6727 2.84741 38.9225 2.85357 39.1699C2.85951 39.4089 2.85485 39.6481 2.85485 39.8871C2.85485 40.1359 2.85485 40.3846 2.85485 40.6455C3.10079 40.7037 3.31937 40.647 3.56179 40.6055C3.85985 39.8925 4.11447 39.1551 4.40962 38.4397C4.63911 38.3858 5.08363 38.3758 5.5979 38.4133C5.57789 38.4859 5.56675 38.5578 5.53887 38.6226C5.23393 39.3303 4.92637 40.0369 4.61956 40.7438C4.59794 40.7936 4.58055 40.8457 4.55435 40.893C4.50178 40.9877 4.51245 41.0745 4.55801 41.171C4.66457 41.3967 4.76153 41.6269 4.8738 41.8773Z" fill="white"/>
<path d="M41.9761 26.2538C42.331 26.2587 42.6544 26.2431 42.9754 26.2637C42.9915 26.3157 43.0089 26.3455 43.0089 26.3753C43.0102 28.6584 43.0101 30.9415 43.0101 33.2283C42.8107 33.3188 42.6138 33.2651 42.4232 33.2745C42.2392 33.2835 42.0542 33.2796 41.8698 33.2756C41.6772 33.2714 41.4825 33.2951 41.283 33.2566C41.273 33.2019 41.259 33.1611 41.259 33.1202C41.2579 30.8481 41.2581 28.5759 41.2581 26.2895C41.3335 26.2759 41.3942 26.2572 41.4555 26.2554C41.6182 26.251 41.781 26.2538 41.9761 26.2538Z" fill="white"/>
<path d="M48.468 41.5206C48.4697 40.9551 48.4711 40.4223 48.474 39.8895C48.4741 39.8699 48.4887 39.8504 48.5054 39.8088C48.6511 39.7697 48.8132 39.7954 48.9723 39.7909C49.1238 39.7866 49.2755 39.79 49.4286 39.79C49.4714 39.845 49.5097 39.8943 49.5528 39.9498C49.6425 39.9081 49.7297 39.8662 49.818 39.8268C50.1927 39.6599 50.5776 39.6534 50.9622 39.7768C51.3013 39.8857 51.546 40.1158 51.6731 40.4473C51.7541 40.6586 51.8202 40.8824 51.8473 41.1062C51.9061 41.5927 51.9158 42.0825 51.8153 42.5672C51.7955 42.6627 51.7718 42.7582 51.7403 42.8503C51.5912 43.2862 51.289 43.557 50.8451 43.67C50.4824 43.7624 50.1142 43.7556 49.7452 43.7249C49.6816 43.7196 49.6183 43.7095 49.5424 43.7C49.4775 43.9647 49.5175 44.225 49.5099 44.4823C49.5026 44.7305 49.5126 44.9793 49.5041 45.2289C49.3283 45.3021 49.1643 45.2654 49.0052 45.2713C48.8431 45.2774 48.6806 45.2727 48.5286 45.2727C48.434 45.1644 48.4698 45.0507 48.4696 44.9465C48.467 43.8154 48.4679 42.6843 48.468 41.5206ZM50.343 40.6587C50.0533 40.5821 49.79 40.661 49.5392 40.7772C49.4938 41.0867 49.4978 42.5329 49.5444 42.7893C49.59 42.7998 49.6408 42.8195 49.6924 42.8219C49.8549 42.8294 50.0183 42.8415 50.1801 42.8316C50.4943 42.8125 50.6862 42.6593 50.7645 42.3565C50.8726 41.9383 50.8688 41.5159 50.7571 41.0985C50.7046 40.9025 50.5998 40.7399 50.343 40.6587Z" fill="white"/>
<path d="M46.0067 43.7433C45.7718 43.7358 45.5685 43.7283 45.3533 43.7203C45.2945 43.8911 45.3227 44.0542 45.3185 44.2133C45.3139 44.3872 45.3174 44.5613 45.3174 44.7354C45.3174 44.8974 45.3174 45.0595 45.3174 45.2338C45.1378 45.3027 44.9641 45.2686 44.7957 45.2708C44.6357 45.2728 44.4727 45.2929 44.3442 45.2593C44.3099 45.2284 44.3001 45.2225 44.2947 45.2139C44.2892 45.2049 44.2858 45.1934 44.2853 45.1829C44.2817 45.107 44.2766 45.0312 44.2766 44.9553C44.2774 43.2696 44.2788 41.5839 44.2811 39.8982C44.2811 39.8782 44.2951 39.8583 44.3025 39.8385C44.513 39.7773 44.8125 39.7679 45.2654 39.8083C45.2904 39.8519 45.316 39.8966 45.3443 39.9459C45.3771 39.9377 45.4109 39.936 45.4377 39.9215C45.7196 39.7682 46.0153 39.681 46.3409 39.6963C46.9394 39.7244 47.3479 40.0113 47.5388 40.5786C47.6109 40.793 47.6567 41.0207 47.6808 41.2459C47.7271 41.6795 47.7247 42.1153 47.6362 42.5452C47.6078 42.6826 47.5659 42.8192 47.5138 42.9495C47.3814 43.2807 47.143 43.5047 46.8054 43.6227C46.5567 43.7097 46.3008 43.7467 46.0067 43.7433ZM45.311 41.4274C45.311 41.6549 45.3076 41.8826 45.3119 42.11C45.3162 42.334 45.2902 42.5603 45.3356 42.8006C45.5977 42.8379 45.8437 42.8605 46.0896 42.8226C46.3072 42.789 46.4695 42.6677 46.5452 42.4542C46.5811 42.3531 46.6039 42.2464 46.6238 42.1406C46.6868 41.805 46.6643 41.4702 46.5865 41.141C46.512 40.8255 46.3275 40.6534 46.0325 40.632C45.7826 40.6138 45.541 40.6605 45.311 40.8139C45.311 40.9977 45.311 41.1808 45.311 41.4274Z" fill="white"/>
<path d="M27.2649 43.6815C26.7985 43.5557 26.5462 43.2481 26.4178 42.8283C26.2562 42.3 26.2442 41.7579 26.3106 41.2146C26.3355 41.0112 26.3816 40.8077 26.4433 40.6122C26.593 40.1371 26.951 39.7438 27.659 39.6997C27.8733 39.6864 28.0908 39.7174 28.3064 39.7333C28.4242 39.742 28.5411 39.7618 28.6613 39.777C28.7271 39.6031 28.6933 39.4392 28.6985 39.2791C28.7041 39.1055 28.6959 38.9314 28.7009 38.7577C28.7056 38.5978 28.6758 38.4346 28.7322 38.2562C29.0581 38.243 29.3781 38.2404 29.6761 38.2568C29.7054 38.2853 29.7151 38.2918 29.7204 38.3008C29.7255 38.3096 29.728 38.3209 29.7285 38.3313C29.7317 38.4072 29.7363 38.4831 29.7363 38.559C29.7357 40.2212 29.7345 41.8834 29.7324 43.5456C29.7324 43.5661 29.7193 43.5866 29.7086 43.6178C29.6733 43.6261 29.6323 43.6436 29.5911 43.6441C29.3635 43.6473 29.1357 43.6417 28.9082 43.6488C28.7994 43.6522 28.7229 43.6065 28.6475 43.5229C28.2131 43.7038 27.7654 43.8141 27.2649 43.6815ZM28.6992 40.7947C28.698 40.7226 28.672 40.6645 28.5946 40.655C28.4129 40.6326 28.231 40.6097 28.0484 40.598C27.7438 40.5783 27.4922 40.6988 27.3975 41.1001C27.3019 41.5051 27.2967 41.9161 27.3873 42.3241C27.4599 42.651 27.6507 42.8121 27.9824 42.8066C28.2179 42.8028 28.4536 42.7722 28.6668 42.6829C28.6797 42.6493 28.694 42.6295 28.6941 42.6095C28.697 42.0249 28.6985 41.4403 28.6992 40.7947Z" fill="white"/>
<path d="M70.3124 42.7602C70.3124 43.0634 70.3124 43.3342 70.3124 43.5988C70.049 43.6627 69.5528 43.6637 69.2821 43.6021C69.2793 43.5002 69.2743 43.3934 69.2737 43.2867C69.2726 42.6998 69.2771 42.1129 69.2698 41.526C69.2676 41.3537 69.2408 41.1805 69.2112 41.01C69.171 40.7747 69.0114 40.6549 68.7848 40.6289C68.6787 40.6167 68.5677 40.6223 68.4622 40.641C68.316 40.6668 68.1574 40.6593 68.0201 40.7815C67.9973 41.247 68.0134 41.7239 68.0101 42.2004C68.0067 42.666 68.0118 43.1317 68.0073 43.5891C67.7779 43.6591 67.4944 43.6689 67.0166 43.6295C66.9351 43.54 66.9703 43.4263 66.9697 43.3227C66.9675 42.1598 66.9686 40.9969 66.9686 39.834C66.9686 39.4101 66.9675 38.9863 66.9692 38.5624C66.9692 38.4661 66.9764 38.3699 66.9809 38.2607C67.3208 38.2607 67.6434 38.2607 67.9822 38.2607C67.9917 38.342 68.0079 38.4151 68.0079 38.4882C68.0107 38.8904 68.0084 39.2925 68.0101 39.6946C68.0107 39.7669 68.0229 39.8392 68.0319 39.9317C68.1418 39.8903 68.2328 39.8593 68.321 39.8225C68.5872 39.7117 68.8635 39.6775 69.1493 39.694C69.68 39.7247 70.0138 39.9796 70.1773 40.4917C70.2639 40.7622 70.3068 41.0415 70.3085 41.3258C70.3113 41.7931 70.3113 42.2604 70.3124 42.7602Z" fill="white"/>
<path d="M60.291 39.7669C60.632 39.7413 60.9451 39.7074 61.2582 39.7017C61.4296 39.6985 61.6048 39.728 61.7723 39.7688C62.1507 39.8612 62.4046 40.0968 62.4945 40.4829C62.5308 40.6402 62.5514 40.8041 62.5542 40.9655C62.5626 41.4109 62.557 41.8565 62.5576 42.302C62.5576 42.3781 62.5559 42.4542 62.5581 42.5302C62.5665 42.7954 62.5754 42.8123 62.8138 43.0035C62.8048 43.227 62.7953 43.4638 62.7853 43.7172C62.3756 43.7808 62.019 43.6979 61.6852 43.4902C61.5501 43.537 61.4184 43.5826 61.2861 43.6287C60.9842 43.7343 60.6727 43.7624 60.3563 43.7374C59.8054 43.6937 59.451 43.3689 59.3784 42.8213C59.3516 42.6185 59.3527 42.4076 59.3739 42.204C59.4141 41.8261 59.6162 41.5569 59.9834 41.4355C60.1369 41.3849 60.296 41.3453 60.4556 41.3242C60.7029 41.2916 60.9524 41.2797 61.2007 41.2579C61.2956 41.2495 61.3911 41.238 61.4832 41.2283C61.539 41.0955 61.5245 40.9757 61.5055 40.8601C61.482 40.7177 61.3927 40.6263 61.2465 40.6064C61.1611 40.5947 61.0735 40.5891 60.987 40.5917C60.5862 40.604 60.1855 40.6202 59.7847 40.6346C59.7434 40.6361 59.7016 40.6348 59.643 40.6348C59.605 40.3972 59.5933 40.1749 59.6028 39.9369C59.816 39.8359 60.0459 39.8272 60.291 39.7669ZM60.57 42.8503C60.901 42.9313 61.2186 42.8938 61.5194 42.7309C61.5194 42.5348 61.52 42.3294 61.5183 42.1241C61.5183 42.0829 61.5077 42.0419 61.5021 42.0049C61.2459 41.9696 60.8139 41.9945 60.6593 42.0547C60.5304 42.1051 60.4378 42.1962 60.4154 42.3353C60.3875 42.5086 60.3764 42.6836 60.57 42.8503Z" fill="white"/>
<path d="M22.5434 42.9647C22.4146 42.6574 22.3618 42.3598 22.3567 42.0527C22.3508 41.6941 22.3474 41.3365 22.4274 40.9826C22.5912 40.2581 23.0004 39.7275 23.9876 39.6999C24.1701 39.6948 24.3568 39.711 24.5362 39.7454C25.1954 39.8718 25.5804 40.2783 25.6898 40.9436C25.7306 41.1913 25.7543 41.4383 25.7036 41.6886C25.6738 41.8354 25.6974 41.9913 25.6386 42.1499C25.2677 42.1905 24.9012 42.1635 24.5359 42.1683C24.1686 42.1732 23.8012 42.1694 23.4365 42.1694C23.4037 42.5367 23.5161 42.7121 23.8293 42.7861C23.9441 42.8133 24.0652 42.8275 24.183 42.8251C24.5513 42.8175 24.9194 42.7993 25.2875 42.7848C25.3733 42.7814 25.459 42.776 25.5598 42.7707C25.6326 43.02 25.6075 43.2639 25.5964 43.5292C25.4337 43.5656 25.2774 43.6022 25.1204 43.6353C24.7155 43.7206 24.3059 43.7624 23.8927 43.7393C23.7206 43.7297 23.5463 43.7068 23.3798 43.6637C23.0042 43.5666 22.7169 43.3506 22.5434 42.9647ZM23.9279 40.5546C23.4904 40.6803 23.3724 40.8629 23.419 41.3418C23.6906 41.4003 24.4796 41.3943 24.6924 41.3316C24.7359 41.1663 24.6866 41.0101 24.6343 40.8571C24.5899 40.7275 24.4979 40.6314 24.3627 40.6009C24.238 40.5727 24.1084 40.5661 23.9279 40.5546Z" fill="white"/>
<path d="M43.4496 43.7323C43.0672 43.7541 42.73 43.6968 42.4385 43.4973C42.1887 43.5696 41.9543 43.6519 41.7134 43.7038C41.4033 43.7706 41.0887 43.7723 40.7819 43.6734C40.4967 43.5815 40.293 43.3958 40.1898 43.1125C40.0599 42.7559 40.046 42.3917 40.1459 42.0246C40.216 41.7672 40.3737 41.576 40.6175 41.4781C40.7963 41.4062 40.9879 41.356 41.1786 41.3263C41.4241 41.288 41.6745 41.2803 41.9226 41.2585C42.0181 41.2501 42.1133 41.2392 42.2072 41.2296C42.2717 41.1022 42.2518 40.9824 42.2373 40.8667C42.2186 40.7181 42.1344 40.6303 41.9874 40.6085C41.881 40.5927 41.7715 40.5907 41.6636 40.5931C41.242 40.6026 40.8205 40.6164 40.3818 40.6291C40.3225 40.3981 40.3336 40.1663 40.35 39.9157C41.0361 39.7491 41.7114 39.6173 42.41 39.7483C43.058 39.8698 43.2247 40.2955 43.274 40.7037C43.287 40.811 43.2853 40.9204 43.2856 41.0289C43.2868 41.4633 43.2861 41.8977 43.2861 42.3321C43.2861 42.3972 43.2862 42.4624 43.2869 42.5275C43.2889 42.7216 43.3297 42.8958 43.5249 42.9765C43.5249 43.1963 43.5273 43.402 43.5228 43.6075C43.522 43.6468 43.4937 43.6854 43.4496 43.7323ZM42.2457 42.697C42.2472 42.5781 42.2525 42.4592 42.249 42.3405C42.2456 42.2249 42.2694 42.1054 42.2176 41.9767C41.9522 41.9711 41.697 41.9898 41.4444 42.0414C41.2787 42.0753 41.1792 42.1853 41.1451 42.3456C41.1104 42.5085 41.1113 42.675 41.2437 42.7988C41.2948 42.8465 41.3744 42.8844 41.4433 42.8885C41.7131 42.9045 41.9808 42.8884 42.2457 42.697Z" fill="white"/>
<path d="M37.7246 40.4392C37.9142 40.8584 37.9681 41.2722 37.9036 41.7027C37.8828 41.8419 37.8684 41.982 37.8484 42.1442C37.7635 42.1527 37.6805 42.1679 37.5975 42.1682C37.0444 42.1703 36.4912 42.1691 35.938 42.1696C35.831 42.1697 35.724 42.1729 35.6174 42.1747C35.6195 42.575 35.7308 42.7287 36.0663 42.7977C36.1716 42.8193 36.2818 42.8283 36.3893 42.8257C36.7469 42.8171 37.1043 42.8011 37.4617 42.787C37.5579 42.7832 37.6539 42.776 37.7617 42.7696C37.8333 43.0266 37.7896 43.2722 37.8007 43.5279C37.0815 43.6991 36.3821 43.8314 35.6616 43.6829C35.1472 43.577 34.8157 43.2693 34.6661 42.7636C34.5183 42.264 34.5211 41.7556 34.5809 41.2452C34.5985 41.0951 34.6336 40.9454 34.6762 40.8C34.851 40.2026 35.2357 39.8373 35.8581 39.7315C36.2177 39.6705 36.5716 39.6845 36.9203 39.7854C37.2692 39.8864 37.5369 40.0958 37.7246 40.4392ZM36.8121 40.8052C36.7202 40.6334 36.5589 40.5757 36.3825 40.5542C36.1971 40.5316 36.0113 40.5451 35.8519 40.6526C35.7833 40.6989 35.7194 40.7695 35.6838 40.8436C35.609 40.9998 35.5594 41.1663 35.6066 41.3432C35.9065 41.4024 36.6816 41.3937 36.8875 41.3282C36.9169 41.1657 36.892 41.008 36.8121 40.8052Z" fill="white"/>
<path d="M10.3811 42.6213C10.2203 42.0732 10.2125 41.5439 10.3285 41.0153C10.3676 40.837 10.4361 40.6601 10.521 40.4982C10.7875 39.9901 11.2387 39.7613 11.7892 39.7062C12.0382 39.6813 12.2867 39.6941 12.5335 39.7507C13.0215 39.8623 13.3714 40.1402 13.5866 40.5929C13.7592 40.9559 13.8009 41.3441 13.8026 41.7373C13.8038 42.0204 13.7722 42.3023 13.6916 42.5758C13.4832 43.2816 12.948 43.7043 12.2117 43.7389C11.9845 43.7496 11.7584 43.7452 11.532 43.6951C11.0279 43.5834 10.6767 43.2915 10.4601 42.8283C10.4325 42.7693 10.4116 42.7072 10.3811 42.6213ZM12.4125 42.754C12.5525 42.6556 12.6335 42.5174 12.6729 42.3544C12.7738 41.9364 12.7741 41.5167 12.6767 41.0985C12.6573 41.0154 12.6224 40.9324 12.5779 40.8597C12.4887 40.714 12.3561 40.6215 12.1836 40.6037C12.0874 40.5937 11.9889 40.5924 11.8926 40.6008C11.6939 40.6184 11.5477 40.726 11.4563 40.8993C11.4115 40.9843 11.3814 41.0796 11.3589 41.1736C11.2953 41.4399 11.2843 41.7123 11.3153 41.9824C11.3349 42.153 11.3735 42.3258 11.4335 42.4865C11.5106 42.6929 11.672 42.8132 11.8964 42.8474C12.063 42.8728 12.2188 42.852 12.4125 42.754Z" fill="white"/>
<path d="M56.1401 43.5253C55.7863 43.3149 55.5721 43.0196 55.4581 42.657C55.2606 42.0292 55.2561 41.3941 55.4625 40.7684C55.6167 40.3008 55.9212 39.9603 56.4005 39.8035C56.8567 39.6542 57.3161 39.6542 57.7732 39.8006C58.1656 39.9263 58.4519 40.1825 58.6266 40.5521C58.7047 40.7169 58.7628 40.8959 58.7991 41.0748C58.8973 41.5594 58.8911 42.0474 58.7656 42.5264C58.568 43.2802 58.0132 43.7118 57.2324 43.7422C56.8584 43.7568 56.4973 43.7156 56.1401 43.5253ZM57.6945 40.9649C57.6805 40.9356 57.6688 40.9047 57.6515 40.8774C57.4746 40.597 57.2061 40.5553 56.9114 40.6073C56.6458 40.6542 56.504 40.843 56.4419 41.0894C56.3339 41.5173 56.3331 41.9496 56.4505 42.3752C56.5403 42.6997 56.7691 42.859 57.0984 42.8556C57.4171 42.8523 57.6258 42.7011 57.7252 42.3914C57.7581 42.2889 57.7849 42.1813 57.7927 42.0744C57.8184 41.7172 57.834 41.3593 57.6945 40.9649Z" fill="white"/>
<path d="M6.84564 39.7895C6.972 39.7896 7.06901 39.7896 7.17288 39.7896C7.21178 39.8474 7.24644 39.899 7.28757 39.9601C7.38363 39.917 7.48036 39.8703 7.57954 39.8297C7.93111 39.6853 8.29055 39.6533 8.66138 39.7487C8.97656 39.8298 9.20088 40.0164 9.33717 40.31C9.45288 40.559 9.51059 40.8239 9.53018 41.0962C9.54262 41.2694 9.54508 41.4436 9.54564 41.6173C9.54748 42.1822 9.54636 42.7471 9.54642 43.312C9.54642 43.4089 9.54642 43.5057 9.54642 43.6066C9.36715 43.6935 9.19267 43.6514 9.02495 43.6546C8.86555 43.6577 8.70285 43.6776 8.52676 43.6309C8.52028 43.5497 8.50962 43.4767 8.50945 43.4037C8.508 42.8388 8.50962 42.2739 8.50795 41.709C8.5075 41.557 8.50644 41.4043 8.49198 41.2533C8.48171 41.1464 8.45704 41.0389 8.42333 40.9367C8.3717 40.7804 8.25723 40.6918 8.09487 40.655C7.88601 40.6078 7.68514 40.6503 7.48404 40.6943C7.41198 40.71 7.34328 40.7408 7.26011 40.7692C7.23416 41.0155 7.25029 41.2535 7.24744 41.4903C7.24449 41.7293 7.24677 41.9683 7.24677 42.2073C7.24677 42.4354 7.24677 42.6636 7.24677 42.8917C7.24677 43.1299 7.24677 43.368 7.24677 43.6074C7.06577 43.6932 6.89063 43.6517 6.72162 43.6546C6.56205 43.6573 6.39907 43.6788 6.24156 43.6343C6.22863 43.5925 6.21137 43.5626 6.21133 43.5327C6.20991 42.3269 6.20987 41.1211 6.211 39.9152C6.21102 39.8848 6.22605 39.8544 6.23667 39.8141C6.42815 39.7649 6.62361 39.7999 6.84564 39.7895Z" fill="white"/>
<path d="M63.713 43.2322C63.545 42.9953 63.4674 42.7458 63.4216 42.4884C63.3312 41.9809 63.3306 41.4708 63.4211 40.9631C63.4456 40.8249 63.488 40.6885 63.5349 40.5559C63.6856 40.1341 63.9853 39.8709 64.4168 39.7674C64.5842 39.7273 64.7589 39.7074 64.9314 39.6993C65.3572 39.6793 65.7669 39.7831 66.1816 39.8591C66.2357 40.0043 66.2062 40.1349 66.2062 40.2621C66.2067 40.3901 66.195 40.5181 66.1883 40.6613C66.1174 40.6669 66.0655 40.6766 66.0147 40.674C65.8411 40.665 65.6681 40.6456 65.4951 40.6419C65.3332 40.6385 65.1691 40.6369 65.009 40.6576C64.6707 40.7014 64.5072 40.8611 64.4547 41.1977C64.4006 41.5433 64.4017 41.8921 64.4547 42.2378C64.5044 42.5636 64.6529 42.7211 64.9738 42.7782C65.1318 42.8062 65.2964 42.8052 65.4577 42.8019C65.6419 42.798 65.8255 42.7753 66.0091 42.7645C66.0611 42.7615 66.113 42.7716 66.1811 42.7769C66.1894 42.8524 66.2011 42.9147 66.2017 42.9773C66.2039 43.1712 66.2028 43.3652 66.2028 43.5762C65.6754 43.7015 65.1541 43.7864 64.6216 43.7264C64.2672 43.6863 63.9518 43.5491 63.713 43.2322Z" fill="white"/>
<path d="M21.53 43.6138C21.1941 43.6581 20.8825 43.6563 20.5576 43.6282C20.5497 43.5528 20.5386 43.4906 20.5374 43.4281C20.5024 41.6841 20.52 38.6071 20.5688 38.2665C20.7208 38.2276 20.8826 38.2521 21.0417 38.2481C21.2036 38.2439 21.3655 38.2472 21.5374 38.2472C21.5519 38.3157 21.572 38.3664 21.5721 38.4172C21.5738 40.1011 21.5737 41.785 21.5728 43.4689C21.5728 43.5115 21.5605 43.5541 21.53 43.6138Z" fill="white"/>
<path d="M52.6541 41.1941C52.6541 40.7172 52.6541 40.2728 52.6541 39.8342C52.9093 39.7782 53.3318 39.7737 53.6597 39.8215C53.6743 39.9187 53.6898 40.0219 53.7092 40.1505C54.1026 39.998 54.4586 39.7639 54.8986 39.7163C54.9333 40.0554 54.9093 40.3782 54.9154 40.7133C54.8384 40.7423 54.7714 40.7743 54.7009 40.7932C54.4394 40.8631 54.1763 40.9266 53.9152 40.9973C53.8443 41.0165 53.7779 41.0526 53.6931 41.0877C53.6931 41.5159 53.6932 41.9387 53.693 42.3616C53.6929 42.782 53.6937 43.2025 53.6923 43.6384C53.3357 43.6682 53.0158 43.6627 52.7177 43.6469C52.6882 43.6188 52.6787 43.6126 52.6734 43.6039C52.668 43.5949 52.664 43.5834 52.664 43.5729C52.6604 42.7909 52.6572 42.0089 52.6541 41.1941Z" fill="white"/>
<path d="M13.2635 25.993C13.2635 25.8548 13.2635 25.7478 13.2635 25.6281C13.447 25.5616 13.6199 25.5971 13.7878 25.5912C13.9608 25.5853 14.1341 25.5874 14.3073 25.5906C14.4782 25.5937 14.6507 25.5747 14.8165 25.6066C14.8707 25.8562 14.8749 26.9058 14.8257 27.1955C14.5977 27.241 13.7052 27.2511 13.2952 27.2109C13.2852 27.1547 13.2657 27.094 13.2651 27.033C13.2621 26.6968 13.2636 26.3605 13.2635 25.993Z" fill="white"/>
<path d="M69.331 25.5907C69.5225 25.5988 69.6843 25.5715 69.8378 25.609C69.8819 25.8672 69.8925 26.6786 69.8596 27.1946C69.8155 27.2057 69.7658 27.2284 69.7167 27.2288C69.3053 27.2318 68.894 27.2313 68.4826 27.2302C68.4307 27.2301 68.3794 27.2199 68.3325 27.2149C68.289 26.9547 68.2784 26.1063 68.3124 25.6265C68.3671 25.6154 68.4268 25.5935 68.4871 25.5926C68.7578 25.5887 69.0285 25.5908 69.331 25.5907Z" fill="white"/>
<path d="M4.34985 27.0647C4.35144 26.6109 4.35345 26.1872 4.35717 25.7635C4.35734 25.7439 4.37293 25.7245 4.39051 25.6838C4.76581 25.642 5.15223 25.6793 5.5492 25.6628C5.62977 25.9316 5.58338 26.1913 5.58934 26.4465C5.59512 26.6943 5.60342 26.9436 5.57986 27.2045C5.50015 27.2125 5.43805 27.2236 5.3759 27.2239C5.08307 27.2256 4.79023 27.2233 4.4974 27.2245C4.40716 27.2249 4.35296 27.1909 4.34985 27.0647Z" fill="white"/>
<path d="M3.46854 27.2245C3.1794 27.2228 2.92169 27.2212 2.66978 27.2195C2.61632 26.9706 2.605 26.1125 2.64524 25.714C2.85101 25.6536 3.48759 25.6445 3.82476 25.6971C3.87377 25.9268 3.88401 26.7898 3.8409 27.1914C3.73615 27.252 3.61458 27.2125 3.46854 27.2245Z" fill="white"/>
<path d="M50.1108 35.0434C50.1108 34.6325 50.1108 34.2525 50.1108 33.8655C50.3227 33.7892 50.5288 33.8301 50.7301 33.8253C50.9229 33.8206 51.1173 33.8106 51.305 33.8349C51.3625 34.0766 51.3694 34.9552 51.32 35.2643C51.0975 35.3155 50.5591 35.3247 50.1415 35.2816C50.1319 35.2164 50.1214 35.1454 50.1108 35.0434Z" fill="white"/>
<path d="M90.1681 42.2204C89.6769 42.1279 89.1723 42.1451 88.665 42.2208C88.5065 42.2444 88.3418 42.2244 88.1777 42.2126C88.6778 42.0916 89.1751 41.9584 89.697 41.9739C89.8717 41.9791 90.0414 42.0066 90.2211 42.0887C90.1736 42.1019 90.1089 42.098 89.9962 42.0795C89.6981 42.0223 89.4486 42.0229 89.2002 42.0859C89.457 42.0985 89.7137 42.111 89.971 42.1236C90.0324 42.1506 90.0938 42.1777 90.1681 42.2204Z" fill="white"/>
</g>
<defs>
<clipPath id="clip0_1_1952">
<rect width="94.3256" height="48" fill="white" transform="translate(0.674316)"/>
</clipPath>
</defs>
</svg>
