<svg width="95" height="48" viewBox="0 0 95 48" fill="none" xmlns="http://www.w3.org/2000/svg">
<path d="M81.9184 43.1735C81.7794 43.7029 81.6365 44.2046 81.5199 44.7125C81.4032 45.2212 81.3267 45.7385 81.296 46.2603C81.2654 46.7765 81.2475 47.2935 81.2224 47.8464C81.1649 47.7935 81.1241 47.7641 81.0934 47.7264C80.3723 46.8403 79.6897 45.9271 79.1355 44.924C78.6493 44.0432 78.281 43.1192 78.1057 42.1224C77.9612 41.2994 77.9679 40.479 78.0973 39.6554C78.3307 38.1653 78.795 36.7415 79.3247 35.3365C79.5161 34.8282 79.7215 34.325 79.9163 33.8179C80.0877 33.3712 80.24 32.9205 80.297 32.4396C80.3584 31.9157 80.2663 31.4223 80.0575 30.9456C80.0006 30.8164 79.932 30.6925 79.8678 30.5666C79.1014 29.0635 78.4724 27.5016 77.9026 25.9157C77.5554 24.9485 77.3723 23.9442 77.3483 22.9138C77.312 21.3669 77.6715 19.9156 78.4211 18.5657C78.843 17.8058 79.27 17.0473 79.7321 16.3114C80.6849 14.7926 81.6588 13.287 82.6317 11.7807C83.34 10.6838 83.9991 9.56028 84.54 8.36994C85.0869 7.16782 85.5016 5.92289 85.7254 4.61942C85.8784 3.72811 85.9554 2.82947 85.9091 1.9234C85.9052 1.84759 85.899 1.76961 85.9119 1.69566C85.9643 1.38764 86.0235 1.08078 86.0832 0.759277C86.2021 0.818022 86.2272 0.919089 86.2735 1.0001C86.9433 2.16951 87.6125 3.33927 88.2784 4.5108C89.9053 7.37355 91.534 10.2355 93.2162 13.0661C93.8023 14.0522 94.2577 15.095 94.539 16.2102C95.0112 18.0845 94.9253 19.9383 94.3253 21.7712C94.0467 22.6216 93.6706 23.4278 93.2201 24.1997C92.2618 25.8431 91.2566 27.4575 90.2207 29.0526C88.5519 31.623 86.8735 34.1875 85.2025 36.7566C84.5863 37.7041 83.9946 38.6671 83.4544 39.6609C82.846 40.7802 82.3186 41.9347 81.9184 43.1735ZM90.3307 15.9162C90.4975 14.8983 90.4752 13.8778 90.3541 12.8589C90.243 11.929 90.0354 11.0176 89.7814 10.1169C89.7597 10.0405 89.7256 9.9675 89.6927 9.88032C89.6709 9.91861 89.6575 9.93619 89.6503 9.956C89.6352 9.99669 89.6201 10.0379 89.6101 10.0801C89.1948 11.8485 88.5089 13.512 87.6722 15.1176C87.0588 16.2949 86.3695 17.4273 85.6534 18.5439C85.5898 18.6433 85.5279 18.7438 85.4732 18.8312C85.6306 19.1943 87.2201 21.9318 87.387 22.1257C87.4205 22.0816 87.4557 22.0434 87.4819 21.9996C88.0908 20.9835 88.7132 19.9749 89.3031 18.9479C89.8333 18.0256 90.1649 17.0271 90.3307 15.9162ZM85.8343 23.7757C85.6507 23.4557 85.467 23.1355 85.2828 22.8157C85.0931 22.4864 84.9055 22.1558 84.7113 21.8291C84.5266 21.5173 84.3692 21.188 84.1414 20.8751C84.0806 20.9576 84.0326 21.0153 83.9919 21.078C83.4817 21.8726 82.966 22.6639 82.4659 23.4651C82.2533 23.8052 82.0629 24.1603 81.8838 24.5192C81.4133 25.4602 81.1091 26.4542 81.0131 27.5037C80.9031 28.7008 81.0761 29.8655 81.4668 30.9992C81.4797 31.0362 81.5115 31.0665 81.5478 31.1194C81.8933 30.6624 82.2533 30.2418 82.5513 29.7749C83.6793 28.0091 84.8051 26.2419 85.9314 24.4748C85.9833 24.3935 86.0296 24.3087 86.0826 24.2186C86.0062 24.0805 85.9331 23.9485 85.8343 23.7757Z" fill="#352217"/>
<path d="M34.4831 33.2765C32.171 33.2765 29.8915 33.2741 27.6121 33.278C26.9429 33.2791 26.2933 33.1796 25.6691 32.9373C25.5285 32.8827 25.4068 32.8785 25.2646 32.9331C24.6297 33.177 23.9706 33.2836 23.2897 33.2785C22.2912 33.2709 21.2925 33.2762 20.2939 33.2768C20.1766 33.2768 20.0593 33.2813 19.9231 33.2842C19.9114 33.4002 19.8992 33.4947 19.8929 33.5896C19.8705 33.9276 19.8068 34.2574 19.7008 34.579C19.6254 34.8077 19.5223 35.0226 19.379 35.2165C19.1173 35.5707 18.7651 35.7628 18.3264 35.7793C18.047 35.7898 17.766 35.7955 17.4922 35.7497C17.4396 35.4986 17.4341 34.5346 17.4831 34.2006C17.551 34.1914 17.6237 34.1819 17.6963 34.1714C17.8872 34.1437 18.0119 34.0327 18.0731 33.8541C18.1045 33.7626 18.1281 33.6659 18.137 33.5698C18.15 33.4293 18.1497 33.2873 18.1497 33.146C18.1505 31.6121 18.15 30.0783 18.1507 28.5444C18.1507 28.4273 18.1573 28.3101 18.1612 28.1786C18.3615 28.1363 18.5451 28.1597 18.7263 28.1557C18.9216 28.1516 19.1171 28.1529 19.3124 28.1554C19.495 28.1577 19.6786 28.1437 19.8825 28.1696C19.8901 28.2755 19.9025 28.3693 19.9026 28.4632C19.9041 29.4096 19.9032 30.356 19.904 31.3025C19.9041 31.4093 19.9104 31.5162 19.9145 31.6434C20.3477 31.6865 20.7681 31.6581 21.187 31.6634C21.5995 31.6686 22.012 31.6645 22.4245 31.6645C22.8455 31.6645 23.2665 31.6645 23.6801 31.6645C23.7178 31.5757 23.6598 31.5472 23.624 31.5143C23.5279 31.4263 23.4257 31.345 23.329 31.2575C23.2081 31.1484 23.0915 31.0345 22.9708 30.925C22.6441 30.6284 22.4985 30.2595 22.5113 29.8192C22.5201 29.5159 22.513 29.2121 22.513 28.9103C24.2696 27.7609 26.5852 27.7614 28.4322 28.9068C28.4322 29.0317 28.4347 29.1611 28.4316 29.2903C28.4267 29.4969 28.412 29.7035 28.4124 29.91C28.4131 30.2907 28.2695 30.6101 28.0071 30.8758C27.8394 31.0456 27.6577 31.2016 27.4815 31.3631C27.3948 31.4426 27.3063 31.5204 27.2248 31.5935C27.237 31.6242 27.2389 31.636 27.2456 31.6439C27.2514 31.6509 27.2624 31.6573 27.2712 31.6573C28.2913 31.6598 29.3115 31.662 30.3316 31.6627C30.3734 31.6627 30.4151 31.6486 30.4652 31.6395C30.4574 31.557 30.4572 31.4805 30.4421 31.4071C30.3372 30.8988 30.3434 30.3892 30.4485 29.8841C30.5347 29.4698 30.6526 29.0622 30.7447 28.6489C30.778 28.4993 30.8643 28.4334 30.9983 28.3863C31.338 28.2668 31.6879 28.1911 32.0429 28.1478C32.637 28.0753 33.2328 28.0557 33.829 28.1364C34.1971 28.1863 34.5542 28.2666 34.8759 28.4648C35.2663 28.7053 35.5142 29.0409 35.5981 29.4995C35.6688 29.8863 35.6978 30.2755 35.7054 30.6673C35.7086 30.8304 35.7097 30.9937 35.7057 31.1567C35.7023 31.2953 35.752 31.411 35.8371 31.5155C35.9169 31.6134 36.0138 31.6675 36.1456 31.6657C36.4603 31.6613 36.7752 31.6644 37.09 31.6645C37.3818 31.6645 37.6737 31.6645 37.9671 31.6645C38.0453 31.5416 38.0133 31.419 38.0135 31.3048C38.0162 29.8145 38.0153 28.3241 38.0153 26.8338C38.0153 26.7032 38.0139 26.5727 38.0163 26.4422C38.0173 26.3903 38.0269 26.3386 38.0319 26.2927C38.3022 26.243 39.4226 26.2397 39.7276 26.284C39.7353 26.2913 39.7449 26.2975 39.7501 26.3063C39.7554 26.3154 39.7585 26.3271 39.7585 26.3376C39.762 28.5891 39.7651 30.8407 39.7673 33.0922C39.7673 33.135 39.7577 33.1779 39.7506 33.2205C39.7491 33.2295 39.7387 33.2371 39.7178 33.2645C39.6715 33.2688 39.6088 33.2797 39.5462 33.2797C38.439 33.2808 37.3318 33.2781 36.2246 33.2829C36.0424 33.2838 35.8839 33.2418 35.7497 33.1181C35.7145 33.1725 35.6858 33.2168 35.6472 33.2765C35.2736 33.2765 34.8946 33.2765 34.4831 33.2765ZM32.0801 31.143C32.1253 31.3091 32.1168 31.4895 32.222 31.6652C32.407 31.6652 32.6011 31.6652 32.7953 31.6652C32.9798 31.6652 33.1644 31.6682 33.3489 31.6643C33.5404 31.6602 33.7343 31.6837 33.932 31.6458C33.9396 31.5839 33.9491 31.5424 33.9493 31.5007C33.9503 31.1853 33.9532 30.8698 33.9475 30.5543C33.9453 30.4355 33.921 30.3172 33.9087 30.1984C33.8929 30.0459 33.8078 29.9375 33.6899 29.851C33.5739 29.766 33.4419 29.7246 33.3005 29.6975C32.9745 29.6354 32.6514 29.6668 32.3283 29.711C32.268 29.7193 32.2109 29.7511 32.1627 29.7684C32.0562 30.2532 32.0372 30.5452 32.0801 31.143ZM24.3232 30.0447C24.6003 30.5041 24.9996 30.8211 25.4653 31.0508C26.099 30.7203 26.5542 30.2823 26.7127 29.8573C26.2892 29.5759 24.6259 29.5702 24.2489 29.858C24.2652 29.9027 24.2831 29.9517 24.3232 30.0447Z" fill="#352217"/>
<path d="M57.7387 33.2807C55.6436 33.2807 53.5809 33.2813 51.5182 33.2804C50.8457 33.28 50.1727 33.2985 49.5021 33.221C49.3522 33.2037 49.1976 33.2053 49.0473 33.2197C48.6494 33.2578 48.3944 33.5079 48.3313 33.9015C48.2526 34.3926 48.5452 34.8307 49.0067 34.8822C49.0818 34.8906 49.1556 34.9101 49.2267 34.9239C49.3217 35.2015 49.4663 36.1621 49.4539 36.4461C49.3968 36.4585 49.3362 36.4806 49.2747 36.4833C48.9602 36.4972 48.647 36.5027 48.3345 36.4378C47.7002 36.3061 47.2279 35.9592 46.9106 35.3961C46.6462 34.9268 46.5692 34.4143 46.5742 33.8858C46.5766 33.6248 46.5967 33.3641 46.6693 33.1107C46.8917 32.3348 47.3952 31.8709 48.1907 31.7272C48.5682 31.659 48.9462 31.6623 49.3261 31.7002C49.5731 31.7249 49.821 31.7415 50.0803 31.7627C50.0928 31.6801 50.1098 31.6181 50.1102 31.5559C50.1125 31.1317 50.1157 30.7072 50.1086 30.2831C50.1064 30.1542 50.0819 30.0235 50.0509 29.8979C50.0045 29.7105 49.8749 29.5991 49.6849 29.5743C49.5564 29.5575 49.4254 29.5559 49.2955 29.5558C48.6875 29.5555 48.0796 29.5584 47.4717 29.5588C47.4083 29.5588 47.3449 29.5495 47.2864 29.545C47.2184 29.2684 47.1866 28.7487 47.218 28.4142C47.3762 28.3739 47.5402 28.3211 47.7083 28.2912C48.5109 28.1481 49.3183 28.0526 50.1359 28.0736C50.3978 28.0803 50.6541 28.1185 50.905 28.1946C51.4228 28.3516 51.7345 28.6924 51.8145 29.2317C51.8431 29.4246 51.8634 29.6204 51.8661 29.8153C51.8732 30.3265 51.8679 30.838 51.8692 31.3493C51.8694 31.4445 51.877 31.5397 51.882 31.6548C51.9752 31.6585 52.0485 31.6634 52.1218 31.6642C54.8567 31.6944 58.5742 31.6792 58.9102 31.634C58.9158 31.5548 58.9214 31.4713 58.9264 31.3876C58.985 30.407 59.6726 29.5316 60.6036 29.2839C62.2468 28.8467 63.377 30.1091 63.483 31.2519C63.4953 31.3806 63.5076 31.5093 63.521 31.6497C63.7029 31.6497 63.8721 31.6497 64.0334 31.6497C64.0518 31.617 64.0702 31.5989 64.0702 31.581C64.0685 31.0917 64.0847 30.6014 64.0574 30.1135C64.0194 29.4376 63.6985 28.9143 63.1175 28.5627C62.825 28.3857 62.4974 28.305 62.1608 28.2666C61.7813 28.2234 61.4012 28.244 61.0244 28.2978C60.5305 28.3682 60.0382 28.4498 59.5454 28.5259C59.4812 28.5357 59.417 28.5413 59.3327 28.5513C59.3171 28.4874 59.297 28.4285 59.2897 28.3679C59.2507 28.044 59.2133 27.7199 59.1798 27.3955C59.1714 27.3112 59.1787 27.2253 59.1787 27.1317C59.4845 27.0245 59.7932 26.968 60.099 26.9089C60.5779 26.8165 61.059 26.7291 61.5429 26.6708C62.1379 26.5991 62.734 26.6106 63.3217 26.7567C64.3532 27.0131 65.0704 27.6408 65.4845 28.6138C65.6905 29.0972 65.806 29.6069 65.8216 30.134C65.8334 30.5253 65.8283 30.9172 65.8322 31.3088C65.8334 31.4154 65.8395 31.5218 65.8434 31.623C66.0957 31.6739 67.6518 31.6871 68.1323 31.6458C68.2082 31.5663 68.1775 31.4639 68.1775 31.371C68.1803 30.4245 68.1792 29.4779 68.1798 28.5313C68.1798 28.425 68.1865 28.3185 68.1898 28.2179C68.4304 28.1593 69.5277 28.1489 69.9083 28.1996C69.9162 28.2554 69.9312 28.3166 69.9312 28.3778C69.9329 29.9337 69.9329 31.4895 69.9318 33.0454C69.9318 33.1095 69.9223 33.1736 69.9156 33.2514C69.8481 33.2617 69.7867 33.2762 69.7242 33.2792C69.6265 33.2838 69.5288 33.2807 69.4311 33.2807C65.5448 33.2807 61.6579 33.2807 57.7387 33.2807ZM61.6378 31.6642C61.6713 31.6426 61.731 31.6244 61.7344 31.5988C61.7656 31.3631 61.7137 31.1458 61.5541 30.9645C61.3498 30.7328 61.0395 30.7421 60.8564 30.9896C60.7169 31.1789 60.6672 31.3946 60.6996 31.6206C60.7336 31.6387 60.7521 31.6567 60.771 31.657C61.0412 31.6612 61.3113 31.6631 61.6378 31.6642Z" fill="#352217"/>
<path d="M6.70481 31.2674C6.70481 31.4072 6.70481 31.5147 6.70481 31.634C6.78702 31.6461 6.84909 31.6631 6.91115 31.6631C8.35428 31.6647 9.7974 31.6646 11.2405 31.6634C11.3038 31.6634 11.3672 31.6505 11.4373 31.6429C11.453 31.447 11.4114 31.267 11.3915 31.0852C11.3429 30.6404 11.3339 30.1963 11.421 29.7539C11.5468 29.1154 11.908 28.6781 12.5165 28.4447C12.8753 28.307 13.2512 28.2433 13.6289 28.2221C14.5725 28.169 15.5159 28.1738 16.4524 28.3308C16.4733 28.3343 16.4928 28.3453 16.5294 28.359C16.537 28.4129 16.5533 28.4748 16.5533 28.5368C16.5547 30.0483 16.5546 31.5599 16.5539 33.0714C16.5539 33.1245 16.5458 33.1777 16.5401 33.2476C16.4739 33.2591 16.4133 33.2753 16.352 33.2791C16.2655 33.2844 16.1784 33.2806 16.0917 33.2806C13.4658 33.2806 10.8399 33.2811 8.21407 33.2804C6.771 33.2801 5.3279 33.2788 3.88482 33.2758C3.45041 33.2749 3.01901 33.2378 2.58935 33.1687C1.78664 33.0395 1.31301 32.5648 1.13781 31.7844C1.0181 31.2512 0.985069 30.7084 1.03503 30.1634C1.05582 29.9367 1.08481 29.7093 1.13099 29.4866C1.27663 28.7842 1.71039 28.3548 2.40783 28.2166C2.76814 28.1452 3.1372 28.1009 3.50415 28.0836C4.41561 28.0408 5.32636 28.089 6.2357 28.1553C6.38466 28.1661 6.53686 28.1752 6.67394 28.228C6.68471 28.2588 6.698 28.2791 6.69805 28.2995C6.70101 29.2781 6.70286 30.2567 6.70481 31.2674ZM4.94087 29.7722C4.91374 29.7151 4.86281 29.7026 4.80689 29.7025C4.37468 29.7018 3.94245 29.6994 3.51028 29.7032C3.42519 29.704 3.33901 29.7241 3.25559 29.7445C3.02393 29.8012 2.88239 29.9517 2.82294 30.181C2.73635 30.5151 2.75012 30.8494 2.85154 31.1753C2.92337 31.4061 3.0798 31.5677 3.33016 31.6096C3.46825 31.6327 3.60775 31.6577 3.74709 31.6609C4.09293 31.6686 4.43905 31.6654 4.78503 31.6636C4.83452 31.6634 4.88392 31.6464 4.94985 31.634C4.94985 31.0207 4.94985 30.4261 4.94087 29.7722ZM13.1654 30.5997C13.1421 31.2844 13.1546 31.4178 13.2636 31.6462C13.7194 31.6883 14.5506 31.6753 14.7952 31.617C14.7964 31.4197 14.7982 31.216 14.7988 31.0121C14.7994 30.8063 14.804 30.6003 14.7975 30.3948C14.791 30.1933 14.83 29.9877 14.7624 29.7847C14.4283 29.7518 14.1051 29.7552 13.7822 29.7786C13.7077 29.784 13.6342 29.8081 13.5614 29.8276C13.4033 29.8702 13.2916 29.9715 13.2466 30.1266C13.2079 30.2603 13.1936 30.4012 13.1654 30.5997Z" fill="#352217"/>
<path d="M90.1817 42.236C90.6611 42.4213 90.9167 42.7939 91.0239 43.2773C91.078 43.5204 91.1098 43.7693 91.1377 44.0172C91.2287 44.8158 91.3124 45.6152 91.399 46.4144C91.4001 46.424 91.3923 46.4346 91.3884 46.4471C91.337 46.5084 91.2767 46.5052 91.2243 46.4522C91.164 46.3906 91.1143 46.3183 91.0568 46.2534C90.7292 45.8834 90.3206 45.6847 89.8256 45.6898C89.6207 45.6918 89.4153 45.7159 89.2122 45.7446C88.9867 45.7765 88.7651 45.8341 88.5402 45.8636C88.3688 45.8861 88.1936 45.8958 88.0211 45.8872C87.6064 45.8666 87.2654 45.6917 87.0382 45.3381C86.916 45.1477 86.811 44.9423 86.7262 44.7326C86.5331 44.2576 86.4259 43.7567 86.3456 43.2528C86.2289 42.5237 86.1335 41.7912 86.0285 41.0603C86.0163 40.9746 86.0364 40.9106 86.153 40.885C86.1988 40.9232 86.2568 40.9683 86.3104 41.0181C86.6698 41.35 87.0985 41.5036 87.5818 41.5231C87.953 41.5381 88.3164 41.4766 88.6814 41.4251C88.8739 41.3979 89.0693 41.3787 89.2635 41.3753C89.6905 41.3677 90.041 41.5438 90.3251 41.8568C90.4172 41.9581 90.5115 42.06 90.569 42.2159C90.4473 42.2063 90.3692 42.1472 90.2431 42.0938C90.0416 42.0065 89.8719 41.979 89.6972 41.9738C89.1753 41.9583 88.678 42.0915 88.1779 42.2125C88.342 42.2243 88.5067 42.2442 88.6652 42.2206C89.1725 42.145 89.6771 42.1278 90.1817 42.236Z" fill="#352217"/>
<path d="M32.5383 39.7536C32.8224 39.8248 33.0816 39.8173 33.3424 39.8009C33.5789 39.7859 33.8161 39.782 34.073 39.7725C34.1297 40.0471 34.1013 40.3024 34.094 40.5646C33.9354 40.6464 33.7686 40.5466 33.5969 40.6007C33.6068 40.6448 33.6107 40.6842 33.6244 40.7198C33.7526 41.0514 33.7206 41.3843 33.6164 41.7107C33.537 41.9593 33.3669 42.1395 33.1293 42.2534C32.8905 42.3679 32.6374 42.4234 32.375 42.4329C32.1805 42.4399 31.9855 42.4342 31.7801 42.4342C31.7579 42.4738 31.7292 42.5074 31.7187 42.546C31.6456 42.8143 31.7033 42.9041 31.9816 42.9393C32.1104 42.9556 32.2417 42.9496 32.3715 42.9588C32.6527 42.9785 32.9336 43.0011 33.2146 43.0236C33.2577 43.0271 33.3008 43.0343 33.343 43.0438C33.8431 43.1564 34.0814 43.4445 34.1018 43.9598C34.1319 44.7194 33.8238 45.1429 33.0806 45.3264C32.4704 45.4771 31.8557 45.4739 31.2443 45.319C31.1815 45.3031 31.1191 45.2837 31.0586 45.2604C30.3963 45.0049 30.2105 44.3061 30.6581 43.748C30.7392 43.6468 30.8324 43.5554 30.9347 43.4435C30.8933 43.3851 30.8492 43.328 30.8106 43.2673C30.6702 43.047 30.6573 42.8193 30.7804 42.5874C30.8407 42.4736 30.9059 42.3625 30.9723 42.2439C30.9367 42.2035 30.9118 42.1689 30.8809 42.1412C30.414 41.7243 30.3827 40.969 30.5854 40.4752C30.7225 40.1415 30.9884 39.9419 31.3208 39.8291C31.6329 39.7232 31.9558 39.6908 32.2841 39.7183C32.3597 39.7247 32.4346 39.7394 32.5383 39.7536ZM32.363 41.6061C32.5179 41.5515 32.6205 41.444 32.6529 41.2842C32.6876 41.1131 32.6961 40.9388 32.6122 40.7762C32.5011 40.5608 32.3018 40.5278 32.0878 40.5277C31.8713 40.5276 31.6745 40.5744 31.5695 40.788C31.5119 40.9052 31.4894 41.0342 31.5072 41.1676C31.5457 41.4566 31.7033 41.6188 31.9922 41.6442C32.0981 41.6535 32.2066 41.6327 32.363 41.6061ZM31.9135 43.8205C31.8186 43.8205 31.7237 43.8205 31.612 43.8205C31.5563 43.9359 31.4967 44.0378 31.4573 44.1471C31.4157 44.2621 31.4651 44.3643 31.5575 44.4332C31.6162 44.4769 31.6905 44.5067 31.7623 44.5243C32.0829 44.603 32.406 44.5995 32.7256 44.5211C32.8065 44.5012 32.8867 44.4568 32.9535 44.4058C33.059 44.3252 33.0732 44.2064 33.0488 44.0818C33.0265 43.9673 32.9364 43.9255 32.8402 43.9038C32.7461 43.8826 32.6483 43.8763 32.5518 43.8683C32.3581 43.8521 32.1641 43.8393 31.9135 43.8205Z" fill="#352217"/>
<path d="M15.7882 43.6471C15.5179 43.6471 15.2796 43.6471 15.029 43.6471C15.0012 43.5675 14.9677 43.4999 14.954 43.4285C14.7376 42.2973 14.5232 41.1657 14.3105 40.0338C14.297 39.9617 14.3003 39.8863 14.2954 39.805C14.3514 39.7949 14.3931 39.7812 14.4349 39.7809C14.7053 39.7789 14.9756 39.7799 15.2546 39.7799C15.2805 39.8537 15.311 39.9116 15.3208 39.9727C15.4572 40.8314 15.5905 41.6905 15.7256 42.5494C15.734 42.6023 15.7452 42.6568 15.7673 42.7049C15.7777 42.7274 15.8169 42.7472 15.844 42.7486C15.8714 42.7499 15.9135 42.7345 15.9254 42.7131C15.951 42.6669 15.9666 42.6132 15.9773 42.5607C16.1324 41.7939 16.2857 41.0268 16.4401 40.2598C16.4656 40.1331 16.4939 40.0069 16.5192 39.8887C16.8018 39.8435 17.3112 39.8435 17.5917 39.8886C17.6607 40.2203 17.7327 40.5591 17.8014 40.8986C17.9135 41.4524 18.0231 42.0067 18.1351 42.5605C18.1457 42.6129 18.1607 42.6666 18.186 42.7129C18.1978 42.7342 18.24 42.7498 18.2674 42.7484C18.2945 42.7471 18.3351 42.7268 18.3438 42.7045C18.3671 42.6449 18.3808 42.5805 18.3908 42.5168C18.5261 41.658 18.6598 40.7989 18.7952 39.9401C18.8017 39.8987 18.82 39.8592 18.831 39.8244C19.0665 39.7668 19.5104 39.7618 19.8113 39.8127C19.8137 39.8521 19.8252 39.8958 19.8175 39.9357C19.5808 41.161 19.3601 42.3896 19.1168 43.6043C18.8565 43.6571 17.8205 43.6637 17.4889 43.6155C17.3552 42.9109 17.2199 42.198 17.0758 41.4382C16.9972 41.5822 16.9825 41.6936 16.9624 41.8033C16.8685 42.3163 16.7756 42.8295 16.6799 43.3422C16.6623 43.4369 16.6335 43.5295 16.6049 43.6422C16.3384 43.6439 16.0793 43.6455 15.7882 43.6471Z" fill="#352217"/>
<path d="M4.87405 41.8773C5.13537 42.4632 5.38527 43.0271 5.63771 43.5968C5.59428 43.6229 5.56894 43.6513 5.54337 43.6516C5.18641 43.6545 4.82943 43.6535 4.45766 43.6535C4.41573 43.5748 4.3699 43.5028 4.33727 43.4252C4.13106 42.935 3.92833 42.4434 3.72312 41.9527C3.67332 41.8337 3.61854 41.7167 3.56934 41.6061C3.28448 41.5669 3.13132 41.5797 2.87505 41.6654C2.86882 41.7424 2.85643 41.827 2.85609 41.9115C2.85416 42.3897 2.85649 42.8678 2.85392 43.346C2.85341 43.441 2.87902 43.5425 2.79345 43.6522C2.47981 43.6541 2.14885 43.6745 1.80886 43.6366C1.79909 43.5811 1.7856 43.5402 1.78558 43.4993C1.78452 41.8156 1.78468 40.1319 1.78468 38.4441C1.96218 38.3607 2.13698 38.4028 2.30564 38.3989C2.47621 38.3949 2.6489 38.3814 2.82653 38.4155C2.88189 38.6727 2.84766 38.9225 2.85381 39.1699C2.85975 39.4089 2.8551 39.6481 2.8551 39.8871C2.8551 40.1359 2.8551 40.3846 2.8551 40.6455C3.10104 40.7037 3.31962 40.647 3.56203 40.6055C3.86009 39.8925 4.11471 39.1551 4.40986 38.4397C4.63936 38.3858 5.08387 38.3758 5.59815 38.4133C5.57813 38.4859 5.567 38.5578 5.53911 38.6226C5.23417 39.3303 4.92661 40.0369 4.6198 40.7438C4.59818 40.7936 4.5808 40.8457 4.55459 40.893C4.50202 40.9877 4.51269 41.0745 4.55825 41.171C4.66481 41.3967 4.76178 41.6269 4.87405 41.8773Z" fill="#352217"/>
<path d="M41.9762 26.2538C42.3311 26.2587 42.6545 26.2431 42.9755 26.2637C42.9916 26.3157 43.009 26.3455 43.009 26.3753C43.0103 28.6584 43.0102 30.9415 43.0102 33.2283C42.8108 33.3188 42.6139 33.2651 42.4233 33.2745C42.2393 33.2835 42.0544 33.2796 41.87 33.2756C41.6773 33.2714 41.4827 33.2951 41.2831 33.2566C41.2731 33.2019 41.2591 33.1611 41.2591 33.1202C41.2581 30.8481 41.2582 28.5759 41.2582 26.2895C41.3336 26.2759 41.3944 26.2572 41.4556 26.2554C41.6183 26.251 41.7811 26.2538 41.9762 26.2538Z" fill="#352217"/>
<path d="M48.4681 41.5206C48.4698 40.9551 48.4712 40.4223 48.4741 39.8895C48.4743 39.8699 48.4888 39.8504 48.5055 39.8088C48.6512 39.7697 48.8133 39.7954 48.9724 39.7909C49.1239 39.7866 49.2756 39.79 49.4287 39.79C49.4715 39.845 49.5098 39.8943 49.5529 39.9498C49.6427 39.9081 49.7299 39.8662 49.8182 39.8268C50.1928 39.6599 50.5777 39.6534 50.9623 39.7768C51.3015 39.8857 51.5461 40.1158 51.6732 40.4473C51.7542 40.6586 51.8204 40.8824 51.8474 41.1062C51.9062 41.5927 51.9159 42.0825 51.8154 42.5672C51.7956 42.6627 51.7719 42.7582 51.7404 42.8503C51.5914 43.2862 51.2891 43.557 50.8452 43.67C50.4825 43.7624 50.1143 43.7556 49.7453 43.7249C49.6817 43.7196 49.6184 43.7095 49.5425 43.7C49.4776 43.9647 49.5176 44.225 49.51 44.4823C49.5027 44.7305 49.5127 44.9793 49.5042 45.2289C49.3284 45.3021 49.1645 45.2654 49.0053 45.2713C48.8432 45.2774 48.6807 45.2727 48.5287 45.2727C48.4341 45.1644 48.47 45.0507 48.4697 44.9465C48.4671 43.8154 48.4681 42.6843 48.4681 41.5206ZM50.3431 40.6587C50.0534 40.5821 49.7901 40.661 49.5394 40.7772C49.4939 41.0867 49.4979 42.5329 49.5445 42.7893C49.5901 42.7998 49.6409 42.8195 49.6925 42.8219C49.855 42.8294 50.0184 42.8415 50.1802 42.8316C50.4944 42.8125 50.6863 42.6593 50.7646 42.3565C50.8728 41.9383 50.8689 41.5159 50.7572 41.0985C50.7048 40.9025 50.5999 40.7399 50.3431 40.6587Z" fill="#352217"/>
<path d="M46.0068 43.7433C45.7719 43.7358 45.5687 43.7283 45.3534 43.7203C45.2947 43.8911 45.3229 44.0542 45.3186 44.2133C45.314 44.3872 45.3176 44.5613 45.3176 44.7354C45.3176 44.8974 45.3176 45.0595 45.3176 45.2338C45.1379 45.3027 44.9642 45.2686 44.7958 45.2708C44.6358 45.2728 44.4729 45.2929 44.3443 45.2593C44.31 45.2284 44.3002 45.2225 44.2948 45.2139C44.2893 45.2049 44.2859 45.1934 44.2854 45.1829C44.2818 45.107 44.2767 45.0312 44.2767 44.9553C44.2776 43.2696 44.2789 41.5839 44.2813 39.8982C44.2813 39.8782 44.2952 39.8583 44.3026 39.8385C44.5131 39.7773 44.8127 39.7679 45.2655 39.8083C45.2905 39.8519 45.3162 39.8966 45.3445 39.9459C45.3772 39.9377 45.411 39.936 45.4378 39.9215C45.7197 39.7682 46.0155 39.681 46.341 39.6963C46.9395 39.7244 47.3481 40.0113 47.5389 40.5786C47.6111 40.793 47.6568 41.0207 47.6809 41.2459C47.7273 41.6795 47.7249 42.1153 47.6363 42.5452C47.6079 42.6826 47.566 42.8192 47.5139 42.9495C47.3815 43.2807 47.1431 43.5047 46.8056 43.6227C46.5568 43.7097 46.3009 43.7467 46.0068 43.7433ZM45.3111 41.4274C45.3111 41.6549 45.3077 41.8826 45.312 42.11C45.3163 42.334 45.2903 42.5603 45.3357 42.8006C45.5978 42.8379 45.8438 42.8605 46.0897 42.8226C46.3073 42.789 46.4697 42.6677 46.5453 42.4542C46.5812 42.3531 46.604 42.2464 46.6239 42.1406C46.6869 41.805 46.6645 41.4702 46.5867 41.141C46.5121 40.8255 46.3276 40.6534 46.0326 40.632C45.7827 40.6138 45.5411 40.6605 45.3111 40.8139C45.3111 40.9977 45.3111 41.1808 45.3111 41.4274Z" fill="#352217"/>
<path d="M27.2649 43.6815C26.7985 43.5557 26.5462 43.2481 26.4178 42.8283C26.2562 42.3 26.2442 41.7579 26.3106 41.2146C26.3355 41.0112 26.3816 40.8077 26.4433 40.6122C26.593 40.1371 26.951 39.7438 27.659 39.6997C27.8733 39.6864 28.0908 39.7174 28.3064 39.7333C28.4242 39.742 28.5411 39.7618 28.6613 39.777C28.7271 39.6031 28.6933 39.4392 28.6985 39.2791C28.7041 39.1055 28.6959 38.9314 28.7009 38.7577C28.7056 38.5978 28.6758 38.4346 28.7322 38.2562C29.0581 38.243 29.3781 38.2404 29.6761 38.2568C29.7054 38.2853 29.7151 38.2918 29.7204 38.3008C29.7255 38.3096 29.728 38.3209 29.7285 38.3313C29.7317 38.4072 29.7363 38.4831 29.7363 38.559C29.7357 40.2212 29.7345 41.8834 29.7324 43.5456C29.7324 43.5661 29.7193 43.5866 29.7086 43.6178C29.6733 43.6261 29.6323 43.6436 29.5911 43.6441C29.3635 43.6473 29.1357 43.6417 28.9082 43.6488C28.7994 43.6522 28.7229 43.6065 28.6475 43.5229C28.2131 43.7038 27.7654 43.8141 27.2649 43.6815ZM28.6992 40.7947C28.698 40.7226 28.672 40.6645 28.5946 40.655C28.4129 40.6326 28.231 40.6097 28.0484 40.598C27.7438 40.5783 27.4922 40.6988 27.3975 41.1001C27.3019 41.5051 27.2967 41.9161 27.3873 42.3241C27.4599 42.651 27.6507 42.8121 27.9824 42.8066C28.2179 42.8028 28.4536 42.7722 28.6668 42.6829C28.6797 42.6493 28.694 42.6295 28.6941 42.6095C28.697 42.0249 28.6985 41.4403 28.6992 40.7947Z" fill="#352217"/>
<path d="M70.3124 42.7602C70.3124 43.0634 70.3124 43.3342 70.3124 43.5988C70.049 43.6627 69.5528 43.6637 69.2821 43.6021C69.2793 43.5002 69.2743 43.3934 69.2737 43.2867C69.2726 42.6998 69.2771 42.1129 69.2698 41.526C69.2676 41.3537 69.2408 41.1805 69.2112 41.01C69.171 40.7747 69.0114 40.6549 68.7848 40.6289C68.6787 40.6167 68.5677 40.6223 68.4622 40.641C68.316 40.6668 68.1574 40.6593 68.0201 40.7815C67.9973 41.247 68.0134 41.7239 68.0101 42.2004C68.0067 42.666 68.0118 43.1317 68.0073 43.5891C67.7779 43.6591 67.4944 43.6689 67.0166 43.6295C66.9351 43.54 66.9703 43.4263 66.9697 43.3227C66.9675 42.1598 66.9686 40.9969 66.9686 39.834C66.9686 39.4101 66.9675 38.9863 66.9692 38.5624C66.9692 38.4661 66.9764 38.3699 66.9809 38.2607C67.3208 38.2607 67.6434 38.2607 67.9822 38.2607C67.9917 38.342 68.0079 38.4151 68.0079 38.4882C68.0107 38.8904 68.0084 39.2925 68.0101 39.6946C68.0107 39.7669 68.0229 39.8392 68.0319 39.9317C68.1418 39.8903 68.2328 39.8593 68.321 39.8225C68.5872 39.7117 68.8635 39.6775 69.1493 39.694C69.68 39.7247 70.0138 39.9796 70.1773 40.4917C70.2639 40.7622 70.3068 41.0415 70.3085 41.3258C70.3113 41.7931 70.3113 42.2604 70.3124 42.7602Z" fill="#352217"/>
<path d="M60.2911 39.7669C60.6321 39.7413 60.9452 39.7074 61.2583 39.7017C61.4297 39.6985 61.605 39.728 61.7724 39.7688C62.1508 39.8612 62.4048 40.0968 62.4946 40.4829C62.5309 40.6402 62.5516 40.8041 62.5543 40.9655C62.5627 41.4109 62.5571 41.8565 62.5577 42.302C62.5577 42.3781 62.556 42.4542 62.5583 42.5302C62.5666 42.7954 62.5756 42.8123 62.8139 43.0035C62.8049 43.227 62.7955 43.4638 62.7854 43.7172C62.3757 43.7808 62.0191 43.6979 61.6853 43.4902C61.5503 43.537 61.4185 43.5826 61.2863 43.6287C60.9843 43.7343 60.6729 43.7624 60.3564 43.7374C59.8055 43.6937 59.4511 43.3689 59.3785 42.8213C59.3517 42.6185 59.3529 42.4076 59.3741 42.204C59.4143 41.8261 59.6163 41.5569 59.9836 41.4355C60.137 41.3849 60.2961 41.3453 60.4557 41.3242C60.703 41.2916 60.9525 41.2797 61.2009 41.2579C61.2957 41.2495 61.3912 41.238 61.4833 41.2283C61.5391 41.0955 61.5246 40.9757 61.5056 40.8601C61.4822 40.7177 61.3929 40.6263 61.2466 40.6064C61.1612 40.5947 61.0736 40.5891 60.9871 40.5917C60.5863 40.604 60.1856 40.6202 59.7849 40.6346C59.7436 40.6361 59.7017 40.6348 59.6431 40.6348C59.6051 40.3972 59.5934 40.1749 59.6029 39.9369C59.8161 39.8359 60.0461 39.8272 60.2911 39.7669ZM60.5702 42.8503C60.9011 42.9313 61.2187 42.8938 61.5196 42.7309C61.5196 42.5348 61.5201 42.3294 61.5184 42.1241C61.5184 42.0829 61.5078 42.0419 61.5023 42.0049C61.2461 41.9696 60.8141 41.9945 60.6595 42.0547C60.5305 42.1051 60.4379 42.1962 60.4156 42.3353C60.3876 42.5086 60.3765 42.6836 60.5702 42.8503Z" fill="#352217"/>
<path d="M22.5436 42.9647C22.4147 42.6574 22.3619 42.3598 22.3569 42.0527C22.3509 41.6941 22.3475 41.3365 22.4275 40.9826C22.5913 40.2581 23.0006 39.7275 23.9877 39.6999C24.1703 39.6948 24.357 39.711 24.5363 39.7454C25.1955 39.8718 25.5805 40.2783 25.69 40.9436C25.7307 41.1913 25.7544 41.4383 25.7037 41.6886C25.6739 41.8354 25.6976 41.9913 25.6387 42.1499C25.2678 42.1905 24.9013 42.1635 24.536 42.1683C24.1687 42.1732 23.8013 42.1694 23.4366 42.1694C23.4038 42.5367 23.5162 42.7121 23.8294 42.7861C23.9442 42.8133 24.0653 42.8275 24.1832 42.8251C24.5514 42.8175 24.9195 42.7994 25.2876 42.7848C25.3734 42.7814 25.4591 42.776 25.5599 42.7707C25.6328 43.02 25.6076 43.2639 25.5965 43.5292C25.4338 43.5656 25.2776 43.6022 25.1205 43.6353C24.7156 43.7206 24.3061 43.7624 23.8928 43.7393C23.7207 43.7297 23.5464 43.7068 23.3799 43.6637C23.0043 43.5666 22.717 43.3506 22.5436 42.9647ZM23.928 40.5546C23.4906 40.6803 23.3725 40.8629 23.4191 41.3418C23.6907 41.4003 24.4797 41.3943 24.6926 41.3316C24.736 41.1663 24.6868 41.0101 24.6344 40.8571C24.59 40.7275 24.498 40.6314 24.3628 40.6009C24.2381 40.5727 24.1085 40.5661 23.928 40.5546Z" fill="#352217"/>
<path d="M43.4499 43.7323C43.0674 43.7541 42.7303 43.6968 42.4387 43.4973C42.189 43.5696 41.9546 43.6519 41.7136 43.7038C41.4035 43.7706 41.0889 43.7723 40.7821 43.6734C40.4969 43.5815 40.2933 43.3958 40.19 43.1125C40.0601 42.7559 40.0463 42.3917 40.1462 42.0246C40.2163 41.7672 40.3739 41.576 40.6177 41.4781C40.7966 41.4062 40.9882 41.356 41.1789 41.3263C41.4244 41.288 41.6747 41.2803 41.9229 41.2585C42.0183 41.2501 42.1136 41.2392 42.2074 41.2296C42.2719 41.1022 42.252 40.9824 42.2375 40.8667C42.2188 40.7181 42.1347 40.6303 41.9877 40.6085C41.8812 40.5927 41.7718 40.5907 41.6639 40.5931C41.2423 40.6026 40.8207 40.6164 40.3821 40.6291C40.3228 40.3981 40.3338 40.1663 40.3502 39.9157C41.0363 39.7491 41.7116 39.6173 42.4102 39.7483C43.0583 39.8698 43.2249 40.2955 43.2743 40.7037C43.2872 40.811 43.2855 40.9204 43.2858 41.0289C43.287 41.4633 43.2863 41.8977 43.2864 42.3321C43.2864 42.3972 43.2864 42.4624 43.2871 42.5275C43.2891 42.7216 43.3299 42.8958 43.5252 42.9765C43.5252 43.1963 43.5276 43.402 43.523 43.6075C43.5222 43.6468 43.4939 43.6854 43.4499 43.7323ZM42.246 42.697C42.2474 42.5781 42.2528 42.4592 42.2493 42.3405C42.2459 42.2249 42.2697 42.1054 42.2179 41.9767C41.9524 41.9711 41.6973 41.9898 41.4446 42.0414C41.2789 42.0753 41.1794 42.1853 41.1453 42.3456C41.1107 42.5085 41.1115 42.675 41.244 42.7988C41.2951 42.8465 41.3747 42.8844 41.4435 42.8885C41.7133 42.9045 41.981 42.8884 42.246 42.697Z" fill="#352217"/>
<path d="M37.7246 40.4392C37.9142 40.8584 37.9681 41.2722 37.9036 41.7027C37.8828 41.8419 37.8684 41.982 37.8484 42.1442C37.7635 42.1527 37.6805 42.1679 37.5975 42.1682C37.0444 42.1703 36.4912 42.1691 35.938 42.1696C35.831 42.1697 35.724 42.1729 35.6174 42.1747C35.6195 42.575 35.7308 42.7287 36.0663 42.7977C36.1716 42.8193 36.2818 42.8283 36.3893 42.8257C36.7469 42.8171 37.1043 42.8011 37.4617 42.787C37.5579 42.7832 37.6539 42.776 37.7617 42.7696C37.8333 43.0266 37.7896 43.2722 37.8007 43.5279C37.0815 43.6991 36.3821 43.8314 35.6616 43.6829C35.1472 43.577 34.8157 43.2693 34.6661 42.7636C34.5183 42.264 34.5211 41.7556 34.5809 41.2452C34.5985 41.0951 34.6336 40.9454 34.6762 40.8C34.851 40.2026 35.2357 39.8373 35.8581 39.7315C36.2177 39.6705 36.5716 39.6845 36.9203 39.7854C37.2692 39.8864 37.5369 40.0958 37.7246 40.4392ZM36.8121 40.8052C36.7202 40.6334 36.5589 40.5757 36.3825 40.5542C36.1971 40.5316 36.0113 40.5451 35.8519 40.6526C35.7833 40.6989 35.7194 40.7695 35.6838 40.8436C35.609 40.9998 35.5594 41.1663 35.6066 41.3432C35.9065 41.4024 36.6816 41.3937 36.8875 41.3282C36.9169 41.1657 36.892 41.008 36.8121 40.8052Z" fill="#352217"/>
<path d="M10.3812 42.6213C10.2204 42.0732 10.2126 41.5439 10.3286 41.0153C10.3677 40.837 10.4362 40.6601 10.5211 40.4982C10.7876 39.9901 11.2388 39.7613 11.7893 39.7062C12.0383 39.6813 12.2868 39.6941 12.5337 39.7507C13.0217 39.8623 13.3715 40.1402 13.5867 40.5929C13.7593 40.9559 13.801 41.3441 13.8027 41.7373C13.8039 42.0204 13.7724 42.3023 13.6917 42.5758C13.4833 43.2816 12.9481 43.7043 12.2118 43.7389C11.9846 43.7496 11.7585 43.7452 11.5321 43.6951C11.028 43.5834 10.6769 43.2915 10.4602 42.8283C10.4326 42.7693 10.4117 42.7072 10.3812 42.6213ZM12.4127 42.754C12.5526 42.6556 12.6336 42.5174 12.673 42.3544C12.7739 41.9364 12.7742 41.5167 12.6768 41.0985C12.6575 41.0154 12.6225 40.9324 12.578 40.8597C12.4889 40.714 12.3562 40.6215 12.1837 40.6037C12.0876 40.5937 11.989 40.5924 11.8927 40.6008C11.694 40.6184 11.5478 40.726 11.4564 40.8993C11.4116 40.9843 11.3815 41.0796 11.3591 41.1736C11.2954 41.4399 11.2844 41.7123 11.3154 41.9824C11.3351 42.153 11.3736 42.3258 11.4336 42.4865C11.5107 42.6929 11.6721 42.8132 11.8966 42.8474C12.0631 42.8728 12.2189 42.852 12.4127 42.754Z" fill="#352217"/>
<path d="M56.1403 43.5253C55.7864 43.3149 55.5722 43.0196 55.4582 42.657C55.2607 42.0292 55.2562 41.3941 55.4626 40.7684C55.6168 40.3008 55.9213 39.9603 56.4006 39.8035C56.8568 39.6542 57.3162 39.6542 57.7733 39.8006C58.1657 39.9263 58.452 40.1825 58.6267 40.5521C58.7048 40.7169 58.7629 40.8959 58.7992 41.0748C58.8974 41.5594 58.8913 42.0474 58.7657 42.5264C58.5681 43.2802 58.0133 43.7118 57.2325 43.7422C56.8585 43.7568 56.4974 43.7156 56.1403 43.5253ZM57.6946 40.9649C57.6807 40.9356 57.6689 40.9047 57.6516 40.8774C57.4747 40.597 57.2062 40.5553 56.9115 40.6073C56.6459 40.6542 56.5041 40.843 56.442 41.0894C56.334 41.5173 56.3333 41.9496 56.4506 42.3752C56.5404 42.6997 56.7692 42.859 57.0985 42.8556C57.4172 42.8523 57.626 42.7011 57.7253 42.3914C57.7582 42.2889 57.785 42.1813 57.7928 42.0744C57.8185 41.7172 57.8342 41.3593 57.6946 40.9649Z" fill="#352217"/>
<path d="M6.84564 39.7895C6.972 39.7896 7.06901 39.7896 7.17288 39.7896C7.21178 39.8474 7.24644 39.899 7.28757 39.9601C7.38363 39.917 7.48036 39.8703 7.57954 39.8297C7.93111 39.6853 8.29055 39.6533 8.66138 39.7487C8.97656 39.8298 9.20088 40.0164 9.33717 40.31C9.45288 40.559 9.51059 40.8239 9.53018 41.0962C9.54262 41.2694 9.54508 41.4436 9.54564 41.6173C9.54748 42.1822 9.54636 42.7471 9.54642 43.312C9.54642 43.4089 9.54642 43.5057 9.54642 43.6066C9.36715 43.6935 9.19267 43.6514 9.02495 43.6546C8.86555 43.6577 8.70285 43.6776 8.52676 43.6309C8.52028 43.5497 8.50962 43.4767 8.50945 43.4037C8.508 42.8388 8.50962 42.2739 8.50795 41.709C8.5075 41.557 8.50644 41.4043 8.49198 41.2533C8.48171 41.1464 8.45704 41.0389 8.42333 40.9367C8.3717 40.7804 8.25723 40.6918 8.09487 40.655C7.88601 40.6078 7.68514 40.6503 7.48404 40.6943C7.41198 40.71 7.34328 40.7408 7.26011 40.7692C7.23416 41.0155 7.25029 41.2535 7.24744 41.4903C7.24449 41.7293 7.24677 41.9683 7.24677 42.2073C7.24677 42.4354 7.24677 42.6636 7.24677 42.8917C7.24677 43.1299 7.24677 43.368 7.24677 43.6074C7.06577 43.6932 6.89063 43.6517 6.72162 43.6546C6.56205 43.6573 6.39907 43.6788 6.24156 43.6343C6.22863 43.5925 6.21137 43.5626 6.21133 43.5327C6.20991 42.3269 6.20987 41.1211 6.211 39.9152C6.21102 39.8848 6.22605 39.8544 6.23667 39.8141C6.42815 39.7649 6.62361 39.7999 6.84564 39.7895Z" fill="#352217"/>
<path d="M63.7131 43.2322C63.5451 42.9953 63.4675 42.7458 63.4217 42.4884C63.3313 41.9809 63.3308 41.4708 63.4212 40.9631C63.4457 40.8249 63.4882 40.6885 63.535 40.5559C63.6857 40.1341 63.9855 39.8709 64.4169 39.7674C64.5843 39.7273 64.759 39.7074 64.9315 39.6993C65.3574 39.6793 65.767 39.7831 66.1817 39.8591C66.2359 40.0043 66.2063 40.1349 66.2063 40.2621C66.2069 40.3901 66.1951 40.5181 66.1884 40.6613C66.1175 40.6669 66.0656 40.6766 66.0148 40.674C65.8413 40.665 65.6682 40.6456 65.4952 40.6419C65.3334 40.6385 65.1693 40.6369 65.0091 40.6576C64.6708 40.7014 64.5073 40.8611 64.4549 41.1977C64.4007 41.5433 64.4018 41.8921 64.4549 42.2378C64.5045 42.5636 64.653 42.7211 64.9739 42.7782C65.1319 42.8062 65.2965 42.8052 65.4578 42.8019C65.642 42.798 65.8256 42.7753 66.0093 42.7645C66.0612 42.7615 66.1131 42.7716 66.1812 42.7769C66.1895 42.8524 66.2013 42.9147 66.2018 42.9773C66.2041 43.1712 66.2029 43.3652 66.2029 43.5762C65.6755 43.7015 65.1542 43.7864 64.6217 43.7264C64.2673 43.6863 63.952 43.5491 63.7131 43.2322Z" fill="#352217"/>
<path d="M21.5303 43.6138C21.1943 43.6581 20.8828 43.6563 20.5578 43.6282C20.5499 43.5528 20.5389 43.4906 20.5377 43.4281C20.5026 41.6841 20.5202 38.6071 20.5691 38.2665C20.7211 38.2276 20.8829 38.2521 21.0419 38.2481C21.2038 38.2439 21.3658 38.2472 21.5376 38.2472C21.5521 38.3157 21.5723 38.3664 21.5723 38.4172C21.5741 40.1011 21.574 41.785 21.5731 43.4689C21.5731 43.5115 21.5607 43.5541 21.5303 43.6138Z" fill="#352217"/>
<path d="M52.6541 41.1941C52.6541 40.7172 52.6541 40.2728 52.6541 39.8342C52.9093 39.7782 53.3318 39.7737 53.6597 39.8215C53.6743 39.9187 53.6898 40.0219 53.7092 40.1505C54.1026 39.998 54.4586 39.7639 54.8986 39.7163C54.9333 40.0554 54.9093 40.3782 54.9154 40.7133C54.8384 40.7423 54.7714 40.7743 54.7009 40.7932C54.4394 40.8631 54.1763 40.9266 53.9152 40.9973C53.8443 41.0165 53.7779 41.0526 53.6931 41.0877C53.6931 41.5159 53.6932 41.9387 53.693 42.3616C53.6929 42.782 53.6937 43.2025 53.6923 43.6384C53.3357 43.6682 53.0158 43.6627 52.7177 43.6469C52.6882 43.6188 52.6787 43.6126 52.6734 43.6039C52.668 43.5949 52.664 43.5834 52.664 43.5729C52.6604 42.7909 52.6572 42.0089 52.6541 41.1941Z" fill="#352217"/>
<path d="M13.2636 25.993C13.2636 25.8548 13.2636 25.7478 13.2636 25.6281C13.4471 25.5616 13.62 25.5971 13.7879 25.5912C13.9609 25.5853 14.1343 25.5874 14.3074 25.5906C14.4784 25.5937 14.6508 25.5747 14.8166 25.6066C14.8708 25.8562 14.875 26.9058 14.8258 27.1955C14.5979 27.241 13.7053 27.2511 13.2953 27.2109C13.2853 27.1547 13.2659 27.094 13.2652 27.033C13.2622 26.6968 13.2637 26.3605 13.2636 25.993Z" fill="#352217"/>
<path d="M69.3313 25.5907C69.5227 25.5988 69.6846 25.5715 69.8381 25.609C69.8821 25.8672 69.8927 26.6786 69.8598 27.1946C69.8157 27.2057 69.766 27.2284 69.7169 27.2288C69.3056 27.2318 68.8942 27.2313 68.4829 27.2302C68.431 27.2301 68.3796 27.2199 68.3327 27.2149C68.2892 26.9547 68.2786 26.1063 68.3127 25.6265C68.3674 25.6154 68.4271 25.5935 68.4874 25.5926C68.7581 25.5887 69.0287 25.5908 69.3313 25.5907Z" fill="#352217"/>
<path d="M4.3501 27.0647C4.35169 26.6109 4.35369 26.1872 4.35741 25.7635C4.35758 25.7439 4.37317 25.7245 4.39075 25.6838C4.76606 25.642 5.15248 25.6793 5.54944 25.6628C5.63001 25.9316 5.58363 26.1913 5.58959 26.4465C5.59537 26.6943 5.60366 26.9436 5.5801 27.2045C5.5004 27.2125 5.4383 27.2236 5.37614 27.2239C5.08331 27.2256 4.79047 27.2233 4.49764 27.2245C4.4074 27.2249 4.3532 27.1909 4.3501 27.0647Z" fill="#352217"/>
<path d="M3.46878 27.2245C3.17964 27.2228 2.92194 27.2212 2.67002 27.2195C2.61656 26.9706 2.60525 26.1125 2.64548 25.714C2.85126 25.6536 3.48783 25.6445 3.82501 25.6971C3.87402 25.9268 3.88426 26.7898 3.84114 27.1914C3.7364 27.252 3.61482 27.2125 3.46878 27.2245Z" fill="#352217"/>
<path d="M50.1108 35.0434C50.1108 34.6325 50.1108 34.2525 50.1108 33.8655C50.3227 33.7892 50.5288 33.8301 50.7301 33.8253C50.9229 33.8206 51.1173 33.8106 51.305 33.8349C51.3625 34.0766 51.3694 34.9552 51.32 35.2643C51.0975 35.3155 50.5591 35.3247 50.1415 35.2816C50.1319 35.2164 50.1214 35.1454 50.1108 35.0434Z" fill="#352217"/>
<path d="M90.1683 42.2204C89.6771 42.1279 89.1726 42.1451 88.6652 42.2208C88.5067 42.2444 88.3421 42.2244 88.178 42.2126C88.6781 42.0916 89.1754 41.9584 89.6972 41.9739C89.8719 41.9791 90.0416 42.0066 90.2213 42.0887C90.1739 42.1019 90.1091 42.098 89.9964 42.0795C89.6984 42.0223 89.4489 42.0229 89.2005 42.0859C89.4572 42.0985 89.714 42.111 89.9713 42.1236C90.0327 42.1506 90.0941 42.1777 90.1683 42.2204Z" fill="#352217"/>
</svg>
