<svg width="104" height="29" viewBox="0 0 104 29" fill="none" xmlns="http://www.w3.org/2000/svg">
<path opacity="0.946" fill-rule="evenodd" clip-rule="evenodd" d="M0.835925 0.120972C4.91875 0.0783379 9.00068 0.120972 13.0817 0.24862C13.728 1.85622 14.1107 3.51565 14.2298 5.2269C9.53888 6.66396 5.07427 8.62131 0.835925 11.0987C0.867687 8.36014 0.825159 5.55189 0.708364 2.67393C0.620093 2.23533 0.492532 1.80976 0.325684 1.39745C0.413879 1.09212 0.541439 1.09212 0.708364 1.39745C0.834266 0.980299 0.876795 0.554721 0.835925 0.120972Z" fill="#C8BD99"/>
<path opacity="0.902" fill-rule="evenodd" clip-rule="evenodd" d="M15.8872 0.120728C20.3952 0.0780938 24.9021 0.120728 29.4086 0.248376C29.4415 1.25807 29.4415 2.32189 29.4086 3.43958C25.2665 3.32648 21.1845 3.75206 17.1628 4.71606C16.6105 3.2333 16.1852 1.70152 15.8872 0.120728Z" fill="#C8BD99"/>
<path opacity="0.965" fill-rule="evenodd" clip-rule="evenodd" d="M17.4197 7.26897C21.349 6.32259 25.346 5.89701 29.4103 5.99249C29.4103 11.609 29.4103 17.2255 29.4103 22.842C25.3794 23.0253 21.4251 22.5998 17.5472 21.5656C18.0766 16.8142 18.0343 12.0489 17.4197 7.26897Z" fill="#C8BD99"/>
<path opacity="0.934" fill-rule="evenodd" clip-rule="evenodd" d="M13.8455 8.03473C14.3432 7.96503 14.7259 8.13506 14.9935 8.54532C15.3369 11.6878 15.4219 14.8363 15.2486 17.9913C15.2305 19.0602 15.0604 20.0814 14.7384 21.0548C9.84136 19.5642 5.24919 17.4368 0.961887 14.6724C0.804427 14.4302 0.84693 14.2175 1.08945 14.0342C5.12558 11.5463 9.3776 9.54659 13.8455 8.03473Z" fill="#C8BD99"/>
<path opacity="0.93" fill-rule="evenodd" clip-rule="evenodd" d="M0.581787 17.991C0.597094 17.8524 0.682126 17.7674 0.836908 17.7357C5.24065 20.2249 9.83282 22.2672 14.6134 23.8628C14.2338 25.2976 13.8936 26.7444 13.5929 28.2029C13.5119 28.4957 13.3418 28.7086 13.0827 28.8411C9.00166 28.9687 4.91973 29.0114 0.836908 28.9687C0.920919 25.2644 0.835862 21.6052 0.581787 17.991Z" fill="#C8BD99"/>
<path opacity="0.908" fill-rule="evenodd" clip-rule="evenodd" d="M17.1648 24.3734C21.2166 25.0931 25.2985 25.5184 29.4106 25.6499C29.4106 26.7561 29.4106 27.8625 29.4106 28.9687C25.073 28.6803 20.736 28.6376 16.3994 28.8411C16.3999 27.3443 16.655 25.8552 17.1648 24.3734Z" fill="#C8BD99"/>
<path opacity="0.931" fill-rule="evenodd" clip-rule="evenodd" d="M38.0659 6.31418C41.3177 5.91056 44.209 6.71908 46.74 8.73949C46.9424 9.01649 47.1125 9.31442 47.2503 9.63303C46.3102 10.7867 45.2471 11.8079 44.0613 12.6966C42.4418 11.0469 40.5284 10.5789 38.3211 11.2925C37.2585 12.4035 37.3437 13.4247 38.5762 14.356C41.081 15.0989 43.462 16.1201 45.7196 17.4196C48.3976 20.0966 48.6953 23.0325 46.6125 26.2273C44.0631 28.7039 41.0442 29.5122 37.5557 28.6526C35.4859 28.2344 33.7427 27.2559 32.3257 25.7167C31.9938 25.2406 31.9086 24.73 32.0706 24.1849C32.848 23.3212 33.6983 22.5554 34.6218 21.8872C35.8665 23.13 37.3547 23.9385 39.0864 24.3126C40.459 24.5541 41.692 24.2564 42.7857 23.419C43.3089 22.4356 43.1814 21.5421 42.403 20.7384C39.9574 19.8548 37.5764 18.8336 35.2596 17.6749C32.6184 15.5209 31.9805 12.8403 33.3462 9.63303C34.5136 7.92357 36.0867 6.81737 38.0659 6.31418Z" fill="#C8BD99"/>
<path opacity="0.933" fill-rule="evenodd" clip-rule="evenodd" d="M59.0046 6.45115C67.6818 6.28393 71.7637 10.539 71.2504 19.216C66.0631 19.3862 60.8754 19.5563 55.6881 19.7266C57.0484 23.4707 59.6845 24.9601 63.5968 24.1942C64.842 23.9116 65.9475 23.3584 66.9134 22.5348C67.9015 23.4817 68.7518 24.5455 69.4646 25.726C68.1043 27.2601 66.4034 28.2813 64.3622 28.7896C57.3905 29.7911 52.8409 26.9402 50.7132 20.2371C49.781 13.3276 52.5447 8.73222 59.0046 6.45115ZM60.5354 10.7912C63.8348 10.8198 65.7482 12.4366 66.2756 15.6418C62.7888 15.3015 59.3024 15.3015 55.8156 15.6418C56.306 12.9809 57.8793 11.3641 60.5354 10.7912Z" fill="#C8BD99"/>
<path opacity="0.962" fill-rule="evenodd" clip-rule="evenodd" d="M74.1102 0.391248C75.6218 0.312617 77.1102 0.397631 78.5748 0.646544C78.7863 10.0682 78.744 19.4716 78.4472 28.8568C76.938 29.0628 75.4496 29.0204 73.9826 28.7291C73.7719 19.265 73.8143 9.81908 74.1102 0.391248Z" fill="#C8BD99"/>
<path opacity="0.937" fill-rule="evenodd" clip-rule="evenodd" d="M91.5864 6.26332C94.5974 6.25796 96.8508 7.53444 98.3471 10.0928C98.5795 8.96921 98.9622 7.90539 99.4952 6.90156C100.601 6.73128 101.706 6.73128 102.812 6.90156C102.939 7.02921 103.067 7.15686 103.194 7.28451C103.405 14.2735 103.362 21.2515 103.067 28.2188C101.8 28.5154 100.524 28.5581 99.2401 28.3464C98.9053 27.5956 98.5227 26.8724 98.092 26.1764C93.9218 29.7886 89.6271 29.9163 85.2084 26.5594C81.924 23.3373 80.691 19.4655 81.5092 14.9434C83.0475 9.86861 86.4067 6.97509 91.5864 6.26332ZM90.5659 11.3692C96.6595 11.3008 99.0832 14.2791 97.8369 20.3046C95.9546 23.8734 93.1059 24.9372 89.2903 23.4958C87.2882 22.1361 86.2677 20.2214 86.2289 17.7516C86.3575 14.6751 87.803 12.5477 90.5659 11.3692Z" fill="#C8BD99"/>
<path opacity="0.01" fill-rule="evenodd" clip-rule="evenodd" d="M17.325 7.22076C17.1547 6.88133 17.1547 6.88133 17.325 7.22076Z" fill="#C8BD99"/>
</svg>
